<?xml version="1.0" encoding="UTF-8" standalone="no"?>
<!-- Created with Sodipodi ("http://www.sodipodi.com/") -->
<svg
   xmlns:dc="http://purl.org/dc/elements/1.1/"
   xmlns:cc="http://web.resource.org/cc/"
   xmlns:rdf="http://www.w3.org/1999/02/22-rdf-syntax-ns#"
   xmlns:svg="http://www.w3.org/2000/svg"
   xmlns="http://www.w3.org/2000/svg"
   xmlns:xlink="http://www.w3.org/1999/xlink"
   xmlns:sodipodi="http://inkscape.sourceforge.net/DTD/sodipodi-0.dtd"
   xmlns:inkscape="http://www.inkscape.org/namespaces/inkscape"
   version="1"
   x="0.00000000"
   y="0.00000000"
   width="32pt"
   height="32pt"
   viewBox="0 0 256 256"
   id="svg548"
   sodipodi:version="0.32"
   sodipodi:docname="stock_volume-mute.svg"
   sodipodi:docbase="/home/joss/deb/pkg-gnome/packages/unstable/gnome-themes-extras/debian/icons/Nuvola"
   inkscape:version="0.42+0.43pre2">
  <metadata
     id="metadata6574">
    <rdf:RDF>
      <cc:Work
         rdf:about="">
        <dc:format>image/svg+xml</dc:format>
        <dc:type
           rdf:resource="http://purl.org/dc/dcmitype/StillImage" />
      </cc:Work>
    </rdf:RDF>
  </metadata>
  <sodipodi:namedview
     id="base"
     inkscape:zoom="9.375"
     inkscape:cx="20"
     inkscape:cy="26.873257"
     inkscape:window-width="900"
     inkscape:window-height="712"
     inkscape:window-x="309"
     inkscape:window-y="173"
     inkscape:current-layer="svg548" />
  <defs
     id="defs647">
    <linearGradient
       id="POUETID_6_"
       gradientUnits="userSpaceOnUse"
       x1="127.5972"
       y1="36.8535"
       x2="127.5972"
       y2="139.1456">
      <stop
   offset="0.0056"
   style="stop-color:#FFFFFF"
   id="stop573" />

      <stop
   offset="1"
   style="stop-color:#FF6666"
   id="stop9005" />

      
      
      
    </linearGradient>
    <linearGradient
       id="POUETID_5_"
       gradientUnits="userSpaceOnUse"
       x1="32.4849"
       y1="127.5029"
       x2="222.7139"
       y2="127.5029">
      <stop
   offset="0.0056"
   style="stop-color:#FF6D00"
   id="stop563" />

      <stop
   offset="0.5"
   style="stop-color:#CF0000"
   id="stop564" />

      <stop
   offset="1"
   style="stop-color:#FF6666"
   id="stop565" />

      
      
      
      
      
    </linearGradient>
    <linearGradient
       id="POUETID_4_"
       gradientUnits="userSpaceOnUse"
       x1="20.0864"
       y1="127.5"
       x2="235.1136"
       y2="127.5">
      <stop
   offset="0.0056"
   style="stop-color:#AA0000"
   id="stop556" />

      <stop
   offset="1"
   style="stop-color:#663333"
   id="stop557" />

      
      
      
    </linearGradient>
    <linearGradient
       id="POUETID_9_"
       gradientUnits="userSpaceOnUse"
       x1="128.0024"
       y1="39.8628"
       x2="128.0024"
       y2="216.1587"
       gradientTransform="matrix(1.881965,0.000000,0.000000,1.881965,-28.93882,-142.0167)">
      <stop
         offset="0"
         style="stop-color:#003333"
         id="stop3256" />
      <stop
         offset="1"
         style="stop-color:#006600"
         id="stop3257" />
    </linearGradient>
    <linearGradient
       id="POUETID_10_"
       gradientUnits="userSpaceOnUse"
       x1="127.7437"
       y1="211.125"
       x2="127.7436"
       y2="44.9092"
       gradientTransform="matrix(1.881965,0.000000,0.000000,1.881965,-28.93882,-142.0167)">
      <stop
         offset="0"
         style="stop-color:#009933"
         id="stop3263" />
      <stop
         offset="1"
         style="stop-color:#00FF00"
         id="stop3264" />
    </linearGradient>
    <linearGradient
       id="POUETID_11_"
       gradientUnits="userSpaceOnUse"
       x1="126.2256"
       y1="55.0059"
       x2="126.2256"
       y2="283.1829"
       gradientTransform="matrix(1.881965,0.000000,0.000000,1.881965,-28.93882,-142.0167)">
      <stop
         offset="0"
         style="stop-color:#FFFFFF"
         id="stop3271" />
      <stop
         offset="0.382"
         style="stop-color:#00FF00"
         id="stop3272" />
      <stop
         offset="0.4331"
         style="stop-color:#00FB02"
         id="stop3273" />
      <stop
         offset="0.4874"
         style="stop-color:#00EE09"
         id="stop3274" />
      <stop
         offset="0.5432"
         style="stop-color:#00D913"
         id="stop3275" />
      <stop
         offset="0.5997"
         style="stop-color:#00BB22"
         id="stop3276" />
      <stop
         offset="0.6517"
         style="stop-color:#009933"
         id="stop3277" />
      <stop
         offset="0.8258"
         style="stop-color:#006600"
         id="stop3278" />
    </linearGradient>
    <radialGradient
       id="POUETID_12_"
       cx="100.5962"
       cy="124.4897"
       r="86.1955"
       fx="100.5962"
       fy="124.4897"
       gradientTransform="matrix(1.554503,-4.648454e-2,-4.648454e-2,1.388890,5.260633,-56.65603)"
       gradientUnits="userSpaceOnUse">
      <stop
         offset="0.3933"
         style="stop-color:#FFFFFF"
         id="stop3288" />
      <stop
         offset="0.7303"
         style="stop-color:#00E100"
         id="stop3289" />
    </radialGradient>
    <linearGradient
       inkscape:collect="always"
       xlink:href="#POUETID_9_"
       id="linearGradient8700"
       gradientUnits="userSpaceOnUse"
       gradientTransform="matrix(1.881965,0.000000,0.000000,1.881965,-28.93882,-142.0167)"
       x1="128.0024"
       y1="39.8628"
       x2="128.0024"
       y2="216.1587" />
    <linearGradient
       inkscape:collect="always"
       xlink:href="#POUETID_10_"
       id="linearGradient8702"
       gradientUnits="userSpaceOnUse"
       gradientTransform="matrix(1.881965,0.000000,0.000000,1.881965,-28.93882,-142.0167)"
       x1="127.7437"
       y1="211.125"
       x2="127.7436"
       y2="44.9092" />
    <linearGradient
       inkscape:collect="always"
       xlink:href="#POUETID_11_"
       id="linearGradient8704"
       gradientUnits="userSpaceOnUse"
       gradientTransform="matrix(1.881965,0.000000,0.000000,1.881965,-28.93882,-142.0167)"
       x1="126.2256"
       y1="55.0059"
       x2="126.2256"
       y2="283.1829" />
    <radialGradient
       inkscape:collect="always"
       xlink:href="#POUETID_12_"
       id="radialGradient8706"
       gradientUnits="userSpaceOnUse"
       gradientTransform="matrix(1.554503,-4.648454e-2,-4.648454e-2,1.388890,5.260633,-56.65603)"
       cx="100.5962"
       cy="124.4897"
       fx="100.5962"
       fy="124.4897"
       r="86.1955" />
  </defs>
  <g
     style="font-size:12px;stroke:#000000"
     id="Layer_1"
     transform="translate(-17.74933,14.33600)">
    <linearGradient
       x1="69.416"
       y1="128.0146"
       x2="228.6201"
       y2="128.0146"
       id="XMLID_1_"
       gradientUnits="userSpaceOnUse"
       spreadMethod="pad">
      <stop
         style="stop-color:#ffffff;stop-opacity:1;"
         offset="0.00000000"
         id="stop551" />
      <stop
         style="stop-color:#949494;stop-opacity:1;"
         offset="1.00000000"
         id="stop552" />
    </linearGradient>
    <path
       d="M 223.964,113.503 C 223.663,112.235 223.346,110.966 223.005,109.696 C 222.645,108.352 222.267,107.02 221.869,105.7 C 206.53,53.528 169.332,18.557 137.472,27.094 C 136.45,27.368 135.446,27.683 134.459,28.039 C 131.308,28.792 127.268,29.828 122.076,31.219 C 80.905,42.252 59.341,95.272 73.909,149.646 C 88.479,204.02 133.665,239.155 174.836,228.124 C 179.412,226.897 183.142,225.811 186.235,224.811 C 187.575,224.605 188.91,224.352 190.231,223.998 C 222.136,215.448 236.861,166.438 223.964,113.503 z "
       style="fill:url(#XMLID_1_);stroke:none"
       id="path556" />
    <path
       d="M 150.699,67.342 L 48.101,94.832 C 27.936,100.237 19.674,132.594 29.293,168.494 C 38.913,204.395 62.245,228.285 82.412,222.882 L 189.872,194.088 L 155.561,66.039 L 150.699,67.342 z "
       style="opacity:0.2;stroke:none"
       id="path557" />
    <path
       d="M 139.169,26.232 C 139.169,26.232 136.767,26.985 136.148,27.179 C 135.874,27.25 123.774,30.357 123.774,30.357 C 89.118,39.644 67.355,76.594 67.355,119.845 C 67.355,131.239 68.865,143.07 72.048,154.948 C 87.313,211.915 135.353,248.717 179.139,236.984 C 183.616,235.784 187.331,234.703 190.532,233.677 C 191.356,233.509 194.534,232.86 194.534,232.86 C 220.875,225.801 236.663,194.434 236.663,155.109 C 236.663,142.79 235.114,129.69 231.855,116.311 C 231.853,116.311 230.867,112.393 230.867,112.393 L 229.689,108.251 C 213.454,53.023 173.688,16.983 139.169,26.232 z "
       style="opacity:0.2;stroke:none"
       id="path558" />
    <linearGradient
       x1="104.605"
       y1="62.039101"
       x2="104.605"
       y2="219.5688"
       id="XMLID_2_"
       gradientUnits="userSpaceOnUse"
       spreadMethod="pad">
      <stop
         style="stop-color:#949494;stop-opacity:1;"
         offset="0.00000000"
         id="stop560" />
      <stop
         style="stop-color:#616161;stop-opacity:1;"
         offset="1.00000000"
         id="stop561" />
    </linearGradient>
    <path
       d="M 147.699,63.342 L 45.101,90.832 C 24.936,96.237 16.674,128.594 26.293,164.494 C 35.913,200.395 59.245,224.285 79.412,218.882 L 186.872,190.088 L 152.561,62.039 L 147.699,63.342 z "
       style="fill:url(#XMLID_2_);stroke:none"
       id="path565" />
    <linearGradient
       x1="95.139603"
       y1="128.9995"
       x2="144.2132"
       y2="244.763"
       id="XMLID_3_"
       gradientUnits="userSpaceOnUse"
       spreadMethod="pad">
      <stop
         style="stop-color:#dfdfdf;stop-opacity:1;"
         offset="0.00000000"
         id="stop567" />
      <stop
         style="stop-color:#828282;stop-opacity:1;"
         offset="1.00000000"
         id="stop568" />
    </linearGradient>
    <path
       d="M 46.403,95.694 C 29.227,100.297 22.399,130.518 31.155,163.19 C 39.909,195.864 60.932,218.622 78.108,214.021 L 180.707,186.529 L 149.002,68.204 L 46.403,95.694 z "
       style="fill:url(#XMLID_3_);stroke:none"
       id="path572" />
    <linearGradient
       x1="106.7593"
       y1="90.512199"
       x2="106.7593"
       y2="186.1459"
       id="XMLID_4_"
       gradientUnits="userSpaceOnUse"
       spreadMethod="pad">
      <stop
         style="stop-color:#ffffff;stop-opacity:1;"
         offset="0.00000000"
         id="stop574" />
      <stop
         style="stop-color:#b2b2b2;stop-opacity:1;"
         offset="1.00000000"
         id="stop575" />
    </linearGradient>
    <path
       d="M 51.121,98.885 C 34.549,103.326 27.961,132.486 36.407,164.011 C 44.854,195.537 65.139,217.496 81.713,213.055 L 180.707,186.53 L 150.115,72.36 L 51.121,98.885 z "
       style="fill:url(#XMLID_4_);stroke:none"
       id="path579" />
    <path
       d="M 79.412,209.882 C 67.165,213.163 53.757,205.629 42.955,191.175 C 53.107,207.711 66.486,217.135 78.108,214.022 L 180.707,186.53 L 179.76,182.995 L 79.412,209.882 z "
       style="fill:#999999;stroke:none"
       id="path580" />
    <linearGradient
       x1="149.0088"
       y1="20.835899"
       x2="149.0088"
       y2="235.1646"
       id="XMLID_5_"
       gradientUnits="userSpaceOnUse"
       spreadMethod="pad">
      <stop
         style="stop-color:#949494;stop-opacity:1;"
         offset="0.00000000"
         id="stop582" />
      <stop
         style="stop-color:#616161;stop-opacity:1;"
         offset="1.00000000"
         id="stop583" />
    </linearGradient>
    <path
       d="M 136.169,22.232 C 136.169,22.232 133.767,22.985 133.148,23.179 C 132.874,23.25 120.774,26.357 120.774,26.357 C 86.118,35.644 64.355,72.594 64.355,115.845 C 64.355,127.239 65.865,139.07 69.048,150.948 C 84.313,207.915 132.353,244.717 176.139,232.984 C 180.616,231.784 184.331,230.703 187.532,229.677 C 188.356,229.509 191.534,228.86 191.534,228.86 C 217.875,221.801 233.663,190.434 233.663,151.109 C 233.663,138.79 232.114,125.69 228.855,112.311 C 228.853,112.311 227.867,108.393 227.867,108.393 L 226.689,104.251 C 210.454,49.023 170.688,12.983 136.169,22.232 z "
       style="fill:url(#XMLID_5_);stroke:none"
       id="path587" />
    <linearGradient
       x1="199.19431"
       y1="40.438999"
       x2="199.19431"
       y2="244.2944"
       id="XMLID_6_"
       gradientUnits="userSpaceOnUse"
       gradientTransform="matrix(0.965900,-0.258800,0.258800,0.965900,-80.78880,43.71060)"
       spreadMethod="pad">
      <stop
         style="stop-color:#dfdfdf;stop-opacity:1;"
         offset="0.00000000"
         id="stop589" />
      <stop
         style="stop-color:#cccccc;stop-opacity:1;"
         offset="1.00000000"
         id="stop590" />
    </linearGradient>
    <path
       d="M 73.909,149.646 C 88.479,204.02 133.665,239.155 174.836,228.124 C 207.654,219.331 198.164,217.463 206.612,207.41 C 225.812,184.565 233.121,147.457 223.005,109.698 C 211.528,66.869 181.059,35.978 148.515,30.18 C 139.743,28.617 157.326,21.776 122.077,31.221 C 80.905,42.252 59.341,95.272 73.909,149.646 z "
       style="fill:url(#XMLID_6_);stroke:none"
       id="path594" />
    <linearGradient
       x1="147.49409"
       y1="198.4893"
       x2="118.9936"
       y2="226.98981"
       id="XMLID_7_"
       gradientUnits="userSpaceOnUse"
       spreadMethod="pad">
      <stop
         style="stop-color:#b2b2b2;stop-opacity:1;"
         offset="0.00000000"
         id="stop596" />
      <stop
         style="stop-color:#828282;stop-opacity:1;"
         offset="1.00000000"
         id="stop597" />
    </linearGradient>
    <path
       d="M 191.533,219.86 C 191.533,219.86 188.355,220.509 187.531,220.677 C 184.331,221.702 180.615,222.783 176.138,223.984 C 144.743,232.396 111.163,215.855 89.044,184.823 C 109.756,218.122 143.46,236.529 174.835,228.123 C 196.143,222.414 199.615,219.624 201.742,215.617 C 198.544,217.455 195.142,218.894 191.533,219.86 z "
       style="fill:url(#XMLID_7_);stroke:none"
       id="path601" />
    <linearGradient
       x1="153.89259"
       y1="142.3652"
       x2="276.37299"
       y2="142.3652"
       id="XMLID_8_"
       gradientUnits="userSpaceOnUse"
       gradientTransform="matrix(0.965900,-0.258800,0.258800,0.965900,-80.78880,43.71060)"
       spreadMethod="pad">
      <stop
         style="stop-color:#ffffff;stop-opacity:1;"
         offset="0.00000000"
         id="stop603" />
      <stop
         style="stop-color:#949494;stop-opacity:1;"
         offset="1.00000000"
         id="stop604" />
    </linearGradient>
    <path
       d="M 104.701,141.396 C 119.27,195.77 157.562,232.751 190.231,223.998 C 222.9,215.245 237.573,164.07 223.004,109.698 C 208.434,55.323 170.14,18.343 137.471,27.095 C 104.804,35.847 90.132,87.022 104.701,141.396 z "
       style="fill:url(#XMLID_8_);stroke:none"
       id="path608" />
    <path
       d="M 137.472,32.127 C 170.141,23.374 208.435,60.355 223.005,114.73 C 226.597,128.134 228.403,141.34 228.609,153.768 C 228.869,139.903 227.086,124.926 223.005,109.697 C 208.435,55.322 170.141,18.342 137.472,27.094 C 112.858,33.689 98.468,64.372 99.097,102.357 C 99.766,66.718 113.954,38.429 137.472,32.127 z "
       style="fill:#ffffff;stroke:none"
       id="path609" />
    <linearGradient
       x1="156.4102"
       y1="142.3662"
       x2="267.9834"
       y2="142.3662"
       id="XMLID_9_"
       gradientUnits="userSpaceOnUse"
       gradientTransform="matrix(0.965900,-0.258800,0.258800,0.965900,-80.78880,43.71060)"
       spreadMethod="pad">
      <stop
         style="stop-color:#cccccc;stop-opacity:1;"
         offset="0.00000000"
         id="stop611" />
      <stop
         style="stop-color:#828282;stop-opacity:1;"
         offset="0.84829998"
         id="stop612" />
      <stop
         style="stop-color:#616161;stop-opacity:1;"
         offset="1.00000000"
         id="stop613" />
    </linearGradient>
    <path
       d="M 107.133,140.744 C 120.704,191.394 155.831,225.988 185.589,218.013 C 215.35,210.039 228.474,162.517 214.902,111.867 C 201.331,61.217 166.204,26.624 136.444,34.598 C 106.685,42.571 93.561,90.094 107.133,140.744 z "
       style="fill:url(#XMLID_9_);stroke:none"
       id="path619" />
    <linearGradient
       x1="242.81641"
       y1="142.3662"
       x2="184.0947"
       y2="142.3662"
       id="XMLID_10_"
       gradientUnits="userSpaceOnUse"
       gradientTransform="matrix(0.965900,-0.258800,0.258800,0.965900,-80.78880,43.71060)"
       spreadMethod="pad">
      <stop
         style="stop-color:#cccccc;stop-opacity:1;"
         offset="0.00000000"
         id="stop621" />
      <stop
         style="stop-color:#c8c8c8;stop-opacity:1;"
         offset="0.22430000"
         id="stop622" />
      <stop
         style="stop-color:#bbbbbb;stop-opacity:1;"
         offset="0.46250001"
         id="stop623" />
      <stop
         style="stop-color:#a6a6a6;stop-opacity:1;"
         offset="0.70709997"
         id="stop624" />
      <stop
         style="stop-color:#888888;stop-opacity:1;"
         offset="0.95480001"
         id="stop625" />
      <stop
         style="stop-color:#828282;stop-opacity:1;"
         offset="1.00000000"
         id="stop626" />
    </linearGradient>
    <path
       d="M 133.873,133.578 C 140.857,159.648 159.216,177.378 174.879,173.182 C 190.543,168.985 197.578,144.451 190.592,118.381 C 183.608,92.311 165.247,74.582 149.583,78.778 C 133.922,82.974 126.887,107.509 133.873,133.578 z "
       style="fill:url(#XMLID_10_);stroke:none"
       id="path630" />
    <linearGradient
       x1="242.81641"
       y1="142.3662"
       x2="188.28709"
       y2="142.3662"
       id="XMLID_11_"
       gradientUnits="userSpaceOnUse"
       gradientTransform="matrix(0.965900,-0.258800,0.258800,0.965900,-80.78880,43.71060)"
       spreadMethod="pad">
      <stop
         style="stop-color:#ffffff;stop-opacity:1;"
         offset="0.00000000"
         id="stop632" />
      <stop
         style="stop-color:#dadada;stop-opacity:1;"
         offset="1.00000000"
         id="stop633" />
    </linearGradient>
    <path
       d="M 137.923,132.494 C 144.408,156.7 161.458,173.166 176.001,169.267 C 190.546,165.371 197.077,142.586 190.592,118.38 C 184.107,94.174 167.057,77.708 152.513,81.606 C 137.969,85.503 131.438,108.287 137.923,132.494 z "
       style="fill:url(#XMLID_11_);stroke:none"
       id="path637" />
    <radialGradient
       cx="250.3643"
       cy="124.3267"
       fx="250.3643"
       fy="124.3267"
       r="71.779099"
       id="XMLID_12_"
       gradientUnits="userSpaceOnUse"
       gradientTransform="matrix(0.965900,-0.258800,0.258800,0.965900,-80.78880,43.71060)"
       spreadMethod="pad">
      <stop
         style="stop-color:#ffffff;stop-opacity:1;"
         offset="0.00000000"
         id="stop639" />
      <stop
         style="stop-color:#b2b2b2;stop-opacity:1;"
         offset="1.00000000"
         id="stop640" />
    </radialGradient>
    <path
       d="M 145.217,130.538 C 150.804,151.394 165.491,165.579 178.021,162.222 C 190.553,158.866 196.181,139.236 190.592,118.381 C 185.004,97.527 170.317,83.341 157.784,86.698 C 145.255,90.056 139.627,109.685 145.217,130.538 z "
       style="fill:url(#XMLID_12_);stroke:none"
       id="path644" />
    <path
       d="M 256,256 L 0,256 L 0,0 L 256,0 L 256,256 z "
       style="fill:none;stroke:none"
       id="path645" />
  </g>
  <g
     transform="matrix(0.524000,0.000000,0.000000,0.524000,95.40276,70.14403)"
     style="overflow:visible"
     id="g9007">
    <rect
   id="_x3C_Slice_x3E_"
   style="fill:none"
   width="256"
   height="256"
   x="0"
   y="0" />

    <path
   style="opacity:0.2"
   d="M 194.17,32.183 L 194.17,32.183 L 194.17,32.183 M 183.85,36.465 L 136.779,83.528 C 135.621,84.692 134.043,85.344 132.401,85.344 L 132.401,85.344 C 130.755,85.344 129.18,84.692 128.017,83.528 L 80.953,36.462 C 75.266,30.775 66.004,30.772 60.312,36.457 L 35.36,61.409 C 32.602,64.163 31.087,67.828 31.087,71.729 C 31.087,75.63 32.602,79.296 35.36,82.046 C 35.36,82.051 82.422,129.12 82.422,129.12 C 84.844,131.54 84.844,135.466 82.422,137.888 L 35.36,184.951 C 32.606,187.71 31.087,191.375 31.087,195.27 C 31.087,199.172 32.602,202.841 35.36,205.589 L 60.305,230.543 C 63.059,233.3 66.724,234.815 70.629,234.815 C 74.526,234.815 78.196,233.299 80.953,230.543 L 128.016,183.476 C 130.438,181.058 134.359,181.058 136.778,183.476 L 183.845,230.543 C 186.6,233.3 190.271,234.815 194.171,234.815 C 198.071,234.815 201.732,233.299 204.488,230.543 L 229.432,205.598 C 232.191,202.833 233.711,199.172 233.711,195.27 C 233.711,191.367 232.19,187.709 229.434,184.951 C 229.432,184.951 182.373,137.887 182.373,137.887 C 181.162,136.677 180.558,135.088 180.558,133.5 C 180.558,131.918 181.162,130.329 182.373,129.119 L 229.432,82.051 C 232.156,79.339 233.711,75.578 233.711,71.729 C 233.711,67.825 232.19,64.16 229.432,61.406 L 204.488,36.463 C 201.731,33.703 198.073,32.186 194.169,32.184 C 190.271,32.183 186.606,33.702 183.85,36.465 z "
   id="path552" />

    <path
   style="opacity:0.2"
   d="M 191.77,30.983 L 191.77,30.983 L 191.77,30.983 M 181.45,35.265 L 134.378,82.329 C 133.221,83.493 131.642,84.144 130,84.144 L 130,84.144 C 128.355,84.144 126.78,83.492 125.616,82.329 L 78.552,35.262 C 72.865,29.575 63.604,29.572 57.912,35.257 L 32.96,60.208 C 30.202,62.962 28.687,66.627 28.687,70.528 C 28.687,74.428 30.202,78.095 32.96,80.844 C 32.96,80.849 80.022,127.918 80.022,127.918 C 82.444,130.338 82.444,134.264 80.022,136.685 L 32.96,183.751 C 30.206,186.51 28.687,190.176 28.687,194.07 C 28.687,197.972 30.202,201.642 32.96,204.39 L 57.905,229.343 C 60.659,232.1 64.324,233.616 68.229,233.616 C 72.126,233.616 75.796,232.099 78.552,229.343 L 125.616,182.277 C 128.038,179.858 131.959,179.858 134.378,182.277 L 181.445,229.343 C 184.2,232.1 187.872,233.616 191.771,233.616 C 195.671,233.616 199.333,232.099 202.088,229.343 L 227.032,204.398 C 229.791,201.633 231.312,197.972 231.312,194.07 C 231.312,190.167 229.791,186.509 227.035,183.751 C 227.032,183.751 179.973,136.687 179.973,136.687 C 178.762,135.477 178.158,133.888 178.158,132.3 C 178.158,130.718 178.762,129.129 179.973,127.92 L 227.032,80.851 C 229.756,78.139 231.312,74.379 231.312,70.529 C 231.312,66.625 229.791,62.96 227.032,60.205 L 202.088,35.262 C 199.332,32.502 195.673,30.985 191.769,30.984 C 187.872,30.983 184.206,32.502 181.45,35.265 z "
   id="path553" />

    <path
   style="opacity:0.2"
   d="M 191.77,28.583 L 191.77,28.583 L 191.77,28.583 M 181.45,32.865 L 134.378,79.928 C 133.221,81.092 131.642,81.744 130,81.744 L 130,81.744 C 128.355,81.744 126.78,81.092 125.616,79.928 L 78.552,32.862 C 72.865,27.175 63.604,27.172 57.912,32.857 L 32.96,57.809 C 30.202,60.563 28.687,64.228 28.687,68.129 C 28.687,72.029 30.202,75.696 32.96,78.445 C 32.96,78.45 80.022,125.519 80.022,125.519 C 82.444,127.939 82.444,131.865 80.022,134.286 L 32.96,181.352 C 30.206,184.11 28.687,187.776 28.687,191.671 C 28.687,195.573 30.202,199.242 32.96,201.99 L 57.905,226.944 C 60.659,229.7 64.324,231.216 68.229,231.216 C 72.126,231.216 75.796,229.699 78.552,226.944 L 125.616,179.877 C 128.038,177.458 131.959,177.458 134.378,179.877 L 181.445,226.944 C 184.2,229.7 187.872,231.216 191.771,231.216 C 195.671,231.216 199.333,229.699 202.088,226.944 L 227.032,201.998 C 229.791,199.234 231.312,195.573 231.312,191.671 C 231.312,187.768 229.791,184.109 227.035,181.352 C 227.032,181.352 179.973,134.287 179.973,134.287 C 178.762,133.078 178.158,131.489 178.158,129.901 C 178.158,128.318 178.762,126.73 179.973,125.52 L 227.032,78.451 C 229.756,75.739 231.312,71.979 231.312,68.129 C 231.312,64.225 229.791,60.56 227.032,57.805 L 202.088,32.862 C 199.332,30.102 195.673,28.585 191.769,28.583 C 187.872,28.583 184.206,30.102 181.45,32.865 z "
   id="path554" />

    <linearGradient
   id="linearGradient9013"
   gradientUnits="userSpaceOnUse"
   x1="20.086399"
   y1="127.5"
   x2="235.1136"
   y2="127.5">
      <stop
   offset="0.0056"
   style="stop-color:#AA0000"
   id="stop9015" />

      <stop
   offset="1"
   style="stop-color:#663333"
   id="stop9017" />

      
      
      
    </linearGradient>

    <path
   style="fill:url(#POUETID_4_)"
   d="M 189.369,26.183 L 189.369,26.183 L 189.369,26.183 M 179.05,30.465 L 131.979,77.528 C 130.821,78.692 129.243,79.344 127.601,79.344 L 127.601,79.344 C 125.955,79.344 124.381,78.692 123.217,77.528 L 76.152,30.462 C 70.465,24.775 61.204,24.772 55.512,30.457 L 30.56,55.409 C 27.802,58.163 26.287,61.828 26.287,65.729 C 26.287,69.63 27.803,73.296 30.56,76.046 C 30.56,76.051 77.622,123.12 77.622,123.12 C 80.044,125.54 80.044,129.465 77.622,131.887 L 30.56,178.951 C 27.806,181.71 26.287,185.375 26.287,189.27 C 26.287,193.172 27.803,196.841 30.56,199.589 L 55.505,224.543 C 58.259,227.3 61.924,228.815 65.828,228.815 C 69.725,228.815 73.395,227.299 76.152,224.543 L 123.216,177.476 C 125.638,175.058 129.559,175.058 131.978,177.476 L 179.044,224.543 C 181.8,227.3 185.471,228.815 189.371,228.815 C 193.27,228.815 196.932,227.299 199.688,224.543 L 224.632,199.598 C 227.391,196.833 228.911,193.172 228.911,189.27 C 228.911,185.367 227.39,181.709 224.634,178.951 C 224.632,178.951 177.572,131.887 177.572,131.887 C 176.362,130.677 175.758,129.088 175.758,127.5 C 175.758,125.918 176.362,124.329 177.572,123.12 L 224.632,76.051 C 227.356,73.339 228.911,69.578 228.911,65.729 C 228.911,61.825 227.39,58.16 224.632,55.406 L 199.688,30.463 C 196.931,27.703 193.273,26.186 189.368,26.184 C 185.472,26.183 181.807,27.702 179.05,30.465 z "
   id="path561" />

    <linearGradient
   id="linearGradient9020"
   gradientUnits="userSpaceOnUse"
   x1="32.484901"
   y1="127.5029"
   x2="222.7139"
   y2="127.5029">
      <stop
   offset="0.0056"
   style="stop-color:#FF6D00"
   id="stop9022" />

      <stop
   offset="0.5"
   style="stop-color:#CF0000"
   id="stop9024" />

      <stop
   offset="1"
   style="stop-color:#FF6666"
   id="stop9026" />

      
      
      
      
      
    </linearGradient>

    <path
   style="fill:url(#POUETID_5_)"
   d="M 164.43,127.5 C 174.123,117.791 220.251,71.667 220.251,71.667 C 221.83,70.094 222.714,67.953 222.714,65.729 C 222.714,63.504 221.83,61.368 220.251,59.79 L 195.304,34.847 C 192.032,31.565 186.708,31.565 183.433,34.847 C 183.433,34.847 137.303,80.969 127.6,90.682 C 117.893,80.969 71.768,34.847 71.768,34.847 C 68.486,31.565 63.172,31.572 59.887,34.847 L 34.942,59.789 C 33.3,61.431 32.484,63.581 32.484,65.728 C 32.484,67.881 33.299,70.026 34.942,71.666 C 34.942,71.666 81.067,117.791 90.774,127.499 C 81.067,137.206 34.942,183.331 34.942,183.331 C 33.3,184.976 32.484,187.12 32.484,189.269 C 32.484,191.419 33.299,193.571 34.942,195.209 L 59.887,220.156 C 61.464,221.729 63.601,222.62 65.828,222.62 C 68.059,222.62 70.189,221.729 71.768,220.156 C 71.768,220.156 117.893,174.029 127.6,164.324 C 137.303,174.029 183.433,220.156 183.433,220.156 C 186.708,223.438 192.032,223.438 195.304,220.156 L 220.251,195.209 C 221.897,193.57 222.714,191.419 222.714,189.269 C 222.714,187.12 221.897,184.975 220.251,183.331 C 220.251,183.332 174.123,137.207 164.43,127.5 z "
   id="path571" />

    <linearGradient
   id="linearGradient9029"
   gradientUnits="userSpaceOnUse"
   x1="127.5972"
   y1="36.8535"
   x2="127.5972"
   y2="139.1456">
      <stop
   offset="0.0056"
   style="stop-color:#FFFFFF"
   id="stop9031" />

      <stop
   offset="1"
   style="stop-color:#FF6666"
   id="stop9033" />

      
      
      
    </linearGradient>

    <path
   style="fill:url(#POUETID_6_)"
   d="M 126.879,133.944 C 136.48,133.944 145.726,132.777 154.417,130.639 C 152.448,128.674 151.277,127.499 151.277,127.499 C 151.277,127.499 211.801,66.974 213.04,65.728 C 211.853,64.541 190.547,43.233 189.369,42.056 C 188.127,43.303 127.605,103.827 127.605,103.827 C 127.605,103.827 67.07,43.295 65.829,42.055 C 64.664,43.217 43.331,64.553 42.155,65.729 C 48.312,71.892 103.926,127.5 103.926,127.5 C 103.926,127.5 102.65,128.781 100.506,130.917 C 108.853,132.883 117.704,133.944 126.879,133.944 z "
   id="path578" />

  </g>
</svg>
