<?xml version="1.0" encoding="utf-8"?>
<svg class="icon" viewBox="0 0 1024 1024" version="1.1" xmlns="http://www.w3.org/2000/svg" width="64" height="64">
    <path d="M510.989141 6.570582c-278.997038 0-505.429418 226.432379-505.429417 505.429418s226.432379 505.429418 505.429417 505.429418 505.429418-226.432379 505.429418-505.429418-225.92695-505.429418-505.429418-505.429418z m299.214215 462.973347c-24.260612 37.401777-61.15696 65.200395-104.11846 77.330701-1.516288 0-1.516288 0-3.538006 1.516288-6.570582 1.516288-13.141165 3.538006-21.228035 3.538006-31.336624 0-48.015795-21.733465-39.423495-46.499506 6.570582-18.195459 24.766041-34.87463 46.499507-41.445213 34.87463-13.141165 57.618954-41.445212 57.618953-74.298124 0-44.477789-42.9615-80.868707-96.031589-80.868707-53.070089 0-96.031589 36.390918-96.031589 80.868707v246.144126c0 59.640671-34.87463 110.689042-85.923001 140.509378-28.304047 16.679171-61.15696 24.766041-96.03159 24.766042-100.580454 0-181.449161-74.298124-181.449161-165.27542 0-29.820336 8.086871-56.102665 23.249754-80.868707 24.260612-37.401777 61.15696-65.200395 104.11846-77.83613 8.086871-1.516288 14.657453-3.538006 23.249753-3.538006 31.336624 0 48.015795 21.228036 39.423494 46.499507-6.570582 18.195459-23.249753 32.852912-42.9615 41.445212-2.527147 0.505429-4.548865 1.516288-6.570582 3.538006-31.336624 13.141165-53.070089 39.928924-53.070089 72.781836 0 44.477789 42.9615 80.868707 96.031589 80.868707 53.070089 0 96.031589-36.390918 96.031589-80.868707V391.707799c0-59.640671 34.87463-110.689042 85.923001-140.509378 28.304047-16.679171 61.15696-24.766041 96.03159-24.766042 100.580454 0 181.449161 74.298124 181.449161 165.27542-0.505429 27.293189-8.5923 54.586377-23.249754 77.83613z m0 0"
          fill="#4FC277"></path>
</svg>