<?xml version="1.0" standalone="no"?><!DOCTYPE svg PUBLIC "-//W3C//DTD SVG 1.1//EN" "http://www.w3.org/Graphics/SVG/1.1/DTD/svg11.dtd"><svg t="1684042350744" class="icon" viewBox="0 0 1024 1024" version="1.1" xmlns="http://www.w3.org/2000/svg" p-id="9696" xmlns:xlink="http://www.w3.org/1999/xlink" width="200" height="200"><path d="M0.1 0h1024v1023.8H0.1z" fill="#FFFFFF" p-id="9697"></path><path d="M512.1 1012.1c-67.5 0-133-13.2-194.7-39.3-59.6-25.2-113.1-61.3-159-107.2-45.9-45.9-82-99.4-107.2-159C25.1 645 11.9 579.4 11.9 511.9s13.2-133 39.3-194.7c25.2-59.6 61.3-113.1 107.2-159s99.4-82 159-107.2c61.7-26.1 127.2-39.3 194.7-39.3s133 13.2 194.7 39.3c59.6 25.2 113.1 61.3 159 107.2 45.9 45.9 82 99.4 107.2 159 26.1 61.7 39.3 127.2 39.3 194.7S999.1 645 973 706.6c-25.2 59.6-61.3 113.1-107.2 159-45.9 45.9-99.4 82-159 107.2-61.6 26.1-127.2 39.3-194.7 39.3z m0-956.1c-61.5 0-121.3 12-177.5 35.8-54.3 23-103.1 55.8-144.9 97.7S114.9 280.2 92 334.4c-23.8 56.2-35.8 115.9-35.8 177.5 0 61.6 12.1 121.3 35.8 177.5 23 54.3 55.8 103.1 97.7 144.9s90.6 74.8 144.9 97.7c56.2 23.8 115.9 35.8 177.5 35.8s121.3-12.1 177.5-35.8c54.3-23 103.1-55.8 144.9-97.7 41.9-41.9 74.8-90.6 97.7-144.9C956 633.2 968 573.5 968 511.9c0-61.6-12.1-121.3-35.8-177.5-23-54.3-55.8-103.1-97.7-144.9-41.9-41.9-90.6-74.8-144.9-97.7C633.4 68 573.7 56 512.1 56z" fill="" p-id="9698"></path><path d="M628.6 406c7.5 0 14.9 0.6 22.5 1.3-20.1-93.9-120.5-163.5-235-163.5-128 0-232.9 87.2-232.9 198.1 0 64 34.8 116.6 93.1 157.4L253 669.4l81.5-41c29.1 5.7 52.6 11.6 81.5 11.6 7.2 0 14.5-0.2 21.7-1-4.7-15.5-7.2-32-7.2-48.7 0-101.7 87.4-184.3 198.1-184.3z m-125.4-63.2c17.5 0 29.1 11.6 29.1 29.1S520.7 401 503.2 401c-17.6 0-35.1-11.6-35.1-29.1 0.3-17.4 17.8-29.1 35.1-29.1z m-163 58.3c-17.6 0-35.1-11.6-35.1-29.1s17.5-29.1 35.1-29.1c17.5 0 29.1 11.6 29.1 29.1 0 17.3-11.5 29.1-29.1 29.1z m500.9 186.5c0-93.1-93.1-168.9-197.8-168.9-110.9 0-198.1 75.9-198.1 168.9 0 93.4 87.2 169 198.1 169 23.2 0 46.7-5.9 69.9-11.6l64 35.1-17.5-58.3c46.6-35.1 81.4-81.8 81.4-134.2z m-262-29.1c-11.6 0-23.2-11.6-23.2-23.2s11.6-23.2 23.2-23.2c17.6 0 29.1 11.6 29.1 23.2s-11.6 23.2-29.1 23.2z m128.2 0c-11.6 0-23.2-11.6-23.2-23.2s11.6-23.2 23.2-23.2c17.5 0 29.1 11.6 29.1 23.2s-11.9 23.2-29.1 23.2z m0 0" fill="" p-id="9699"></path></svg>