<?xml version="1.0" standalone="no"?><!DOCTYPE svg PUBLIC "-//W3C//DTD SVG 1.1//EN" "http://www.w3.org/Graphics/SVG/1.1/DTD/svg11.dtd"><svg t="1589543964111" class="icon" viewBox="0 0 1024 1024" version="1.1" xmlns="http://www.w3.org/2000/svg" p-id="3938" width="32" height="32" xmlns:xlink="http://www.w3.org/1999/xlink"><defs><style type="text/css"></style></defs><path d="M798.72 603.648l129.536 378.88-243.712-75.776-46.08 77.824-66.56-234.496c92.672-17.92 173.056-71.68 226.816-146.432z m0 0" fill="#ED6766" p-id="3939"></path><path d="M201.216 603.648l-130.56 378.88 227.84-65.536 61.952 67.584 66.56-234.496c-91.648-17.92-172.544-71.68-225.792-146.432z m0 0" fill="#EA6869" p-id="3940"></path><path d="M153.088 387.584c0 192.512 156.16 348.16 348.16 348.16 192.512 0 348.16-156.16 348.16-348.16 0-192.512-156.16-348.16-348.16-348.16-192.512-0.512-348.16 155.648-348.16 348.16z m0 0" fill="#B7B7B7" p-id="3941"></path><path d="M230.912 387.584c0 149.504 121.344 270.336 270.336 270.336 149.504 0 270.336-121.344 270.336-270.336 0-149.504-121.344-270.336-270.336-270.336-149.504-0.512-270.336 120.832-270.336 270.336z m0 0" fill="#D9D9D9" p-id="3942"></path><path d="M403.456 532.48c105.984-92.672 154.624-159.744 154.624-218.112 0-38.912-20.48-66.56-62.464-66.56-27.648 0-51.712 16.896-70.144 38.912l-24.576-24.064c27.648-30.208 56.832-49.664 99.328-49.664 60.416 0 98.304 39.424 98.304 99.84 0 67.072-52.736 135.68-132.096 210.944 17.408-1.536 38.4-3.072 55.296-3.072h93.696v36.352h-212.48v-24.576z" fill="#FFFFFF" p-id="3943"></path></svg>