<?xml version="1.0" standalone="no"?><!DOCTYPE svg PUBLIC "-//W3C//DTD SVG 1.1//EN" "http://www.w3.org/Graphics/SVG/1.1/DTD/svg11.dtd"><svg t="1684031471476" class="icon" viewBox="0 0 1024 1024" version="1.1" xmlns="http://www.w3.org/2000/svg" p-id="17459" xmlns:xlink="http://www.w3.org/1999/xlink" width="200" height="200"><path d="M512 512m-512 0a512 512 0 1 0 1024 0 512 512 0 1 0-1024 0Z" fill="#667BFB" p-id="17460"></path><path d="M290.133333 657.0496h443.733334V682.666667H290.133333v-25.617067z m0-17.698133l116.2752-34.235734-83.0464-85.623466L290.133333 639.351467zM600.695467 404.821333l-83.063467-85.623466L334.916267 507.562667l83.0464 85.6064 182.7328-188.330667z m38.6048-71.918933l-51.9168-53.504c-8.6016-8.874667-23.005867-8.379733-32.187734 1.0752l-24.917333 25.668267 83.063467 85.623466 24.917333-25.685333c9.1648-9.454933 9.6256-24.302933 1.024-33.1776z" fill="#FFFFFF" p-id="17461"></path></svg>