<?xml version="1.0" encoding="UTF-8"?>
<svg width="50px" height="198px" viewBox="0 0 50 198" version="1.1" xmlns="http://www.w3.org/2000/svg" xmlns:xlink="http://www.w3.org/1999/xlink">
    <!-- Generator: Sketch 49.3 (51167) - http://www.bohemiancoding.com/sketch -->
    <title>图标</title>
    <desc>Created with Sketch.</desc>
    <defs></defs>
    <g id="图标" stroke="none" stroke-width="1" fill="none" fill-rule="evenodd">
        <g id="消息-copy" transform="translate(0.000000, 18.000000)">
            <path d="M3.82729065,13.7761737 L6.44032846,12.3713187 L6.60500023,12.3961607 C7.06157698,12.4650387 7.52790904,12.5 8,12.5 C12.1623535,12.5 15.5,9.7881622 15.5,6.5 C15.5,3.2118378 12.1623535,0.5 8,0.5 C3.83764652,0.5 0.5,3.2118378 0.5,6.5 C0.5,8.47464605 1.70879273,10.3010613 3.71532163,11.4225707 L3.99411506,11.5783967 L3.82729065,13.7761737 Z" id="Combined-Shape" stroke="#666A75"></path>
            <circle id="Oval-2" fill="#666A75" cx="4" cy="6" r="1"></circle>
            <circle id="Oval-2-Copy" fill="#666A75" cx="8" cy="6" r="1"></circle>
            <circle id="Oval-2-Copy-2" fill="#666A75" cx="12" cy="6" r="1"></circle>
        </g>
        <g id="点赞-copy" transform="translate(0.000000, 34.000000)">
            <g id="Group-2" stroke="#666A75">
                <path d="M5.50901393,5.49653372 L5.45024094,5.5 L2,5.5 C1.17157288,5.5 0.5,6.17157288 0.5,7 L0.5,14 C0.5,14.8284271 1.17157288,15.5 2,15.5 L12.3977813,15.5 C13.0336412,15.5 13.6004117,15.0990896 13.8121632,14.4995238 L16.2843858,7.49952382 C16.3410514,7.33907738 16.370004,7.1701589 16.370004,7 C16.370004,6.17157288 15.6984311,5.5 14.870004,5.5 L10.6377345,5.5 L10.8679253,4.83618502 C11.0034481,4.44536973 11.2032968,3.96275302 11.467921,3.38590961 C11.99043,2.24691325 11.7455186,1.41754804 10.97789,0.932005799 C10.3228614,0.51768555 9.44889521,0.501012722 9.15001229,0.810500266 C8.91821194,1.05052509 8.77941611,1.26365017 8.68740314,1.49880444 C8.62731709,1.65236423 8.58846419,1.80248917 8.53000577,2.08725311 C8.36500495,2.89100863 8.27025652,3.22258936 7.97657659,3.81612985 C7.49356565,4.79231691 6.65249587,5.36118368 5.50901393,5.49653372 Z" id="Combined-Shape"></path>
            </g>
            <rect id="Rectangle-4" fill="#666A75" x="3.1875" y="5" width="1.0625" height="11"></rect>
        </g>
        <g id="浏览-copy" transform="translate(0.000000, 2.000000)" stroke="#666A75">
            <path d="M15.4404326,6.00018728 C13.5528161,2.30718003 11.083377,0.5 8,0.5 C4.916623,0.5 2.44718386,2.30718003 0.559567424,6.00018728 C2.444006,9.69295067 4.91335618,11.5 8,11.5 C11.0866438,11.5 13.555994,9.69295067 15.4404326,6.00018728 Z" id="Oval-4"></path>
            <circle id="Oval-5" cx="8" cy="6" r="2"></circle>
        </g>
        <g id="云市场热点" transform="translate(0.000000, 51.000000)">
            <g id="Group-10" transform="translate(0.000000, 2.000000)" fill="#666A75" fill-rule="nonzero">
                <path d="M16.8265112,4.00922831 C15.6426466,2.1665567 13.5329927,1 11.199698,1 C8.02578456,1 5.32651012,3.15553088 4.72411061,6.08269599 L4.59271211,6.72118438 L3.95550016,6.85863957 C2.23364114,7.23006771 1,8.69405972 1,10.3846154 C1,12.3723781 2.69268117,14 4.79987059,14 L4.79987059,15 C2.14897526,15 0,12.9336219 0,10.3846154 C0,8.18421097 1.60138049,6.34345323 3.74463691,5.881124 C4.43466963,2.5281337 7.51014394,0 11.199698,0 C14.1760553,0 16.7527925,1.64521393 18,4.04147356 L17.9783337,4.05275047 C20.8157619,4.42498058 23,6.72196438 23,9.5 C23,12.5375661 20.3885854,15 17.1672421,15 L17.1672421,14 C19.8490071,14 22,11.9717208 22,9.5 C22,7.02827916 19.8490071,5 17.1672421,5 C15.8371073,5 14.597733,5.50166979 13.693556,6.37215152 L13,5.65174881 C13.984557,4.70388252 15.3299027,4.09051824 16.8265112,4.00922831 Z" id="Combined-Shape"></path>
            </g>
            <g id="Group-11" transform="translate(5.000000, 10.000000)">
                <path d="M0,0.0532156719 C0.84607647,-0.183476107 1.36444806,0.369397428 1.55511477,1.71183628 C1.74578148,3.05427513 2.05370766,4.95726421 2.4788933,7.42080351 C2.57100555,8.47360117 3.00359407,9 3.77665887,9 C4.54972366,9 6.62417071,9 10,9" id="Path-5" stroke="#F66F6A" stroke-linecap="round" stroke-linejoin="round"></path>
                <path d="M3,1.00523597 C7.3479173,1.00523597 9.65584169,1.00523597 9.92377318,1.00523597 C10.3256704,1.00523597 11.273663,0.825678421 10.9240298,2.5695518 C10.5743965,4.31342517 9.88003399,6.55587631 9.0657391,6.66303286 C8.52287583,6.73447055 7.06075634,6.84679293 4.67938061,7" id="Path-7" stroke="#F66F6A" stroke-linecap="round" stroke-linejoin="round"></path>
                <circle id="Oval-8" fill="#F66F6A" cx="3.5" cy="10.5" r="1"></circle>
                <circle id="Oval-8-Copy" fill="#F66F6A" cx="9.5" cy="10.5" r="1"></circle>
            </g>
        </g>
        <g id="云学院" transform="translate(0.000000, 97.000000)">
            <g id="Group-10" transform="translate(0.000000, 2.000000)" fill="#666A75" fill-rule="nonzero">
                <path d="M18,4.04147356 L17.1129579,4.50316207 C16.0065855,2.37748886 13.7351811,1 11.199698,1 C8.02578456,1 5.32651012,3.15553088 4.72411061,6.08269599 L4.59271211,6.72118438 L3.95550016,6.85863957 C2.23364114,7.23006771 1,8.69405972 1,10.3846154 C1,12.3723781 2.69268117,14 4.79987059,14 L4.79987059,15 C2.14897526,15 0,12.9336219 0,10.3846154 C0,8.18421097 1.60138049,6.34345323 3.74463691,5.881124 C4.43466963,2.5281337 7.51014394,0 11.199698,0 C14.1760553,0 16.7527925,1.64521393 18,4.04147356 Z M17.9783337,4.05275047 C20.8157619,4.42498058 23,6.72196438 23,9.5 C23,12.5375661 20.3885854,15 17.1672421,15 L17.1672421,14 C19.8490071,14 22,11.9717208 22,9.5 C22,7.02827916 19.8490071,5 17.1672421,5 C15.8371073,5 14.597733,5.50166979 13.693556,6.37215152 L13,5.65174881 C13.984557,4.70388252 15.3299027,4.09051824 16.8265112,4.00922831 C15.6426466,2.1665567 13.5329927,1 11.199698,1 C8.02578456,1 5.32651012,3.15553088 4.72411061,6.08269599 L4.59271211,6.72118438 L3.95550016,6.85863957 C2.23364114,7.23006771 1,8.69405972 1,10.3846154 C1,12.3723781 2.69268117,14 4.79987059,14 L4.79987059,15 C2.14897526,15 0,12.9336219 0,10.3846154 C0,8.18421097 1.60138049,6.34345323 3.74463691,5.881124 C4.43466963,2.5281337 7.51014394,0 11.199698,0 C14.1760553,0 16.7527925,1.64521393 18,4.04147356 L17.9783337,4.05275047 Z" id="Combined-Shape"></path>
            </g>
            <path d="M8.69161126,11.3631841 L6.32984347,17.6554379 L12.6220972,15.2936701 L14.983865,9.00141635 L8.69161126,11.3631841 Z" id="Rectangle-14" stroke="#F66F6A" transform="translate(10.656854, 13.328427) rotate(-315.000000) translate(-10.656854, -13.328427) "></path>
            <path d="M6.79343853,15.5239212 L6.79343853,19.4872332 C8.98228777,20.9999851 11.4969739,20.9999851 14.3374969,19.4872332 C14.3374969,18.1169184 14.3374969,16.7958145 14.3374969,15.5239212" id="Path-6" stroke="#F66F6A"></path>
            <path d="M16.1077114,13.7308496 L16.1077114,17.137454" id="Path-8" stroke="#F66F6A"></path>
        </g>
        <g id="dev" transform="translate(0.000000, 74.000000)">
            <g id="Group-10" transform="translate(0.000000, 1.000000)" fill="#666A75" fill-rule="nonzero">
                <path d="M18,4.04147356 L17.1129579,4.50316207 C16.0065855,2.37748886 13.7351811,1 11.199698,1 C8.02578456,1 5.32651012,3.15553088 4.72411061,6.08269599 L4.59271211,6.72118438 L3.95550016,6.85863957 C2.23364114,7.23006771 1,8.69405972 1,10.3846154 C1,12.3723781 2.69268117,14 4.79987059,14 L4.79987059,15 C2.14897526,15 0,12.9336219 0,10.3846154 C0,8.18421097 1.60138049,6.34345323 3.74463691,5.881124 C4.43466963,2.5281337 7.51014394,0 11.199698,0 C14.1760553,0 16.7527925,1.64521393 18,4.04147356 Z M17.9783337,4.05275047 C20.8157619,4.42498058 23,6.72196438 23,9.5 C23,12.5375661 20.3885854,15 17.1672421,15 L17.1672421,14 C19.8490071,14 22,11.9717208 22,9.5 C22,7.02827916 19.8490071,5 17.1672421,5 C15.8371073,5 14.597733,5.50166979 13.693556,6.37215152 L13,5.65174881 C13.984557,4.70388252 15.3299027,4.09051824 16.8265112,4.00922831 C15.6426466,2.1665567 13.5329927,1 11.199698,1 C8.02578456,1 5.32651012,3.15553088 4.72411061,6.08269599 L4.59271211,6.72118438 L3.95550016,6.85863957 C2.23364114,7.23006771 1,8.69405972 1,10.3846154 C1,12.3723781 2.69268117,14 4.79987059,14 L4.79987059,15 C2.14897526,15 0,12.9336219 0,10.3846154 C0,8.18421097 1.60138049,6.34345323 3.74463691,5.881124 C4.43466963,2.5281337 7.51014394,0 11.199698,0 C14.1760553,0 16.7527925,1.64521393 18,4.04147356 L17.9783337,4.05275047 Z" id="Combined-Shape"></path>
            </g>
            <polyline id="Rectangle-12" stroke="#F66F6A" stroke-linecap="round" stroke-linejoin="round" transform="translate(8.378680, 15.378680) rotate(-45.000000) translate(-8.378680, -15.378680) " points="5.98959236 17.767767 6.69669914 13.6966991 10.767767 12.9895924"></polyline>
            <polyline id="Rectangle-12-Copy" stroke="#F66F6A" stroke-linecap="round" stroke-linejoin="round" transform="translate(13.378680, 15.378680) scale(-1, 1) rotate(-45.000000) translate(-13.378680, -15.378680) " points="10.9895924 17.767767 11.6966991 13.6966991 15.767767 12.9895924"></polyline>
            <path d="M12.5,9.5 L9.5,20.5" id="Line" stroke="#F66F6A" stroke-linecap="round" stroke-linejoin="round"></path>
        </g>
        <g id="热门活动" transform="translate(0.000000, 120.000000)">
            <g id="Group-10" transform="translate(0.000000, 1.000000)" fill="#666A75" fill-rule="nonzero">
                <path d="M18,4.04147356 L17.1129579,4.50316207 C16.0065855,2.37748886 13.7351811,1 11.199698,1 C8.02578456,1 5.32651012,3.15553088 4.72411061,6.08269599 L4.59271211,6.72118438 L3.95550016,6.85863957 C2.23364114,7.23006771 1,8.69405972 1,10.3846154 C1,12.3723781 2.69268117,14 4.79987059,14 L4.79987059,15 C2.14897526,15 0,12.9336219 0,10.3846154 C0,8.18421097 1.60138049,6.34345323 3.74463691,5.881124 C4.43466963,2.5281337 7.51014394,0 11.199698,0 C14.1760553,0 16.7527925,1.64521393 18,4.04147356 Z M17.9783337,4.05275047 C20.8157619,4.42498058 23,6.72196438 23,9.5 C23,12.5375661 20.3885854,15 17.1672421,15 L17.1672421,14 C19.8490071,14 22,11.9717208 22,9.5 C22,7.02827916 19.8490071,5 17.1672421,5 C15.8371073,5 14.597733,5.50166979 13.693556,6.37215152 L13,5.65174881 C13.984557,4.70388252 15.3299027,4.09051824 16.8265112,4.00922831 C15.6426466,2.1665567 13.5329927,1 11.199698,1 C8.02578456,1 5.32651012,3.15553088 4.72411061,6.08269599 L4.59271211,6.72118438 L3.95550016,6.85863957 C2.23364114,7.23006771 1,8.69405972 1,10.3846154 C1,12.3723781 2.69268117,14 4.79987059,14 L4.79987059,15 C2.14897526,15 0,12.9336219 0,10.3846154 C0,8.18421097 1.60138049,6.34345323 3.74463691,5.881124 C4.43466963,2.5281337 7.51014394,0 11.199698,0 C14.1760553,0 16.7527925,1.64521393 18,4.04147356 L17.9783337,4.05275047 Z" id="Combined-Shape"></path>
            </g>
            <path d="M9.4811741,18 C11.6903131,18 13.4811741,15.9852814 13.4811741,13.5 C13.4811741,11.0147186 11.6903131,9 9.4811741,9 C7.2720351,9 5.4811741,11.0147186 5.4811741,13.5 C5.4811741,15.9852814 7.2720351,18 9.4811741,18 Z" id="Oval-9" stroke="#F66F6A"></path>
            <path d="M12.2159016,17.19191 C12.6170992,17.6912724 13.1706795,18 13.7820301,18 C15.0069811,18 16,16.7605408 16,15.2315903 C16,13.7026399 15.0069811,12.4631806 13.7820301,12.4631806 C13.5077184,12.4631806 13.2450376,12.5253367 13.0025346,12.6389807" id="Oval-9-Copy" stroke="#F66F6A"></path>
            <path d="M8.42857143,11 C7.63959321,11 7,11.8954305 7,13" id="Oval-9" stroke="#F66F6A" stroke-linecap="round"></path>
            <path d="M9.15149401,18 C8.66222825,18.6520734 8.60713704,19.1520734 8.98622039,19.5 C9.36530375,19.8479266 9.38007928,20.3479266 9.03054698,21" id="Path-9" stroke="#F66F6A" stroke-linecap="round"></path>
            <path d="M14.0107886,17.9797456 C14.0344639,18.5974866 14.1178123,19.0286959 14.2608338,19.2733738 C14.4038553,19.5180516 14.4038553,19.9121054 14.2608338,20.455535" id="Path-9-Copy" stroke="#F66F6A" stroke-linecap="round"></path>
        </g>
        <g id="Group-15" transform="translate(0.000000, 143.000000)">
            <g id="组件/播放/40/白色" fill="#FFFFFF">
                <rect id="Rectangle-22" fill-opacity="0.3" x="0" y="0" width="40" height="30" rx="2"></rect>
                <path d="M26.7401883,16.3298817 L17.5319492,22.1145447 C17.0642876,22.4083322 16.4470112,22.2673793 16.1532237,21.7997177 C16.0531098,21.6403526 16,21.4559706 16,21.2677685 L16,8.87206194 C16,8.31977719 16.4477153,7.87206194 17,7.87206194 C17.2092499,7.87206194 17.4132281,7.93770226 17.5832068,8.0597382 L26.7914459,14.6707817 C27.2400799,14.9928779 27.3426591,15.6176782 27.0205629,16.0663122 C26.9450495,16.1714916 26.8498286,16.2610051 26.7401883,16.3298817 Z" id="Triangle"></path>
            </g>
            <path d="M13.7960232,39.6584325 L8.42837829,44.6578282 C6.6154651,46.3352571 3.72000787,46.4113537 2.23851306,45.0485155 C0.757018246,43.6856772 0.425599872,40.6411534 2.23851306,38.9637246 L10.0233756,31.7606478 C11.1608897,30.7410342 13.0093502,30.7410342 14.1468644,31.7935386 C15.2843785,32.8460429 15.2843785,34.5563625 14.1468644,35.6088669 L6.36200188,42.7790529 C5.89988675,43.2066328 4.89488567,43.3410189 4.27030476,42.7790529 C3.64572385,42.217087 3.80818963,41.3246307 4.27030476,40.8970508 C4.27030476,40.8970508 6.46238933,38.8797508 10.8465585,34.8451507" id="Shape" stroke="#777777" stroke-linecap="round" fill-rule="nonzero"></path>
        </g>
        <path d="M3.66927819,194 L0.161443628,190.846038 C-0.0538145425,190.652495 -0.0538145425,190.3387 0.161443628,190.145157 C0.376701798,189.951614 0.725704248,189.951614 0.940962418,190.145157 L4.83855637,193.64956 C5.05381454,193.843103 5.05381454,194.156897 4.83855637,194.35044 L0.940962418,197.854843 C0.725704248,198.048386 0.376701798,198.048386 0.161443628,197.854843 C-0.0538145425,197.6613 -0.0538145425,197.347505 0.161443628,197.153962 L3.66927819,194 Z" id="Combined-Shape" fill="#1B79C8" fill-rule="nonzero"></path>
    </g>
</svg>