<svg xmlns="http://www.w3.org/2000/svg" xmlns:xlink="http://www.w3.org/1999/xlink" width="64" height="16"><defs><path id="a" d="M0 0h16v16H0z"/><mask id="b" width="16" height="16" x="0" y="0" fill="#fff"><use xlink:href="#a"/></mask></defs><g fill="none" fill-rule="evenodd"><path fill="#FFF" d="M34 2v13h11v1H33V2h1zm9-2v5h4v9H35V0h8zm-2 6h-1v2h-2v1h2v2h1V9h2V8h-2V6zm3-6l3 4h-3V0zM31 3v13H20V3h11zm-3-3v2h-1V1h-9v12h1v1h-2V0h11zm-1 12h-5v1h5v-1zm1-2h-6v1h6v-1zm0-2h-6v1h6V8zm1-2h-7v1h7V6z"/><use stroke="#FFF" stroke-dasharray="1" stroke-width="2" mask="url(#b)" xlink:href="#a"/><path fill="#FFF" d="M7 9v4H3V9h4zm6 0v4H9V9h4zM7 3v4H3V3h4zm6 0v4H9V3h4zm51-3v16h-3v-1h2V1h-2V0h3zM51 0v1h-2v14h2v1h-3V0h3zm10 3v10H51V3h10zm-2 7h-4v1h4v-1zm-1-2h-5v1h5V8zm1-2h-4v1h4V6zm-1-2h-5v1h5V4z"/></g></svg>