<?xml version="1.0" standalone="no"?><!DOCTYPE svg PUBLIC "-//W3C//DTD SVG 1.1//EN" "http://www.w3.org/Graphics/SVG/1.1/DTD/svg11.dtd"><svg t="1589543950528" class="icon" viewBox="0 0 1024 1024" version="1.1" xmlns="http://www.w3.org/2000/svg" p-id="3687" width="32" height="32" xmlns:xlink="http://www.w3.org/1999/xlink"><defs><style type="text/css"></style></defs><path d="M832.512 618.496l130.56 379.904-244.736-75.776-46.08 77.824-67.584-235.52c93.696-17.92 173.568-72.192 227.84-146.432z m-600.064 0l-130.56 379.904 228.864-65.536 62.976 68.608 67.584-235.52c-94.72-18.944-174.592-73.216-228.864-147.456z m0 0" fill="#EA6869" p-id="3688"></path><path d="M185.344 400.896c0 193.024 156.672 349.696 349.696 349.696s349.696-156.672 349.696-349.696-156.672-349.696-349.696-349.696-349.696 156.672-349.696 349.696z m0 0" fill="#F4B25B" p-id="3689"></path><path d="M263.168 400.896c0 150.016 121.856 271.872 271.872 271.872s271.872-121.856 271.872-271.872-121.856-271.872-271.872-271.872c-150.528 0-271.872 121.856-271.872 271.872z m0 0" fill="#F4DF83" p-id="3690"></path><path d="M438.784 536.064h75.264v-251.904h-59.904v-26.624c29.696-5.632 51.712-13.312 70.144-24.064h32.256v302.592h67.584v34.816h-185.344v-34.816z" fill="#FFFFFF" p-id="3691"></path></svg>