<?xml version="1.0" standalone="no"?><!DOCTYPE svg PUBLIC "-//W3C//DTD SVG 1.1//EN" "http://www.w3.org/Graphics/SVG/1.1/DTD/svg11.dtd"><svg t="1589543972194" class="icon" viewBox="0 0 1024 1024" version="1.1" xmlns="http://www.w3.org/2000/svg" p-id="4150" width="32" height="32" xmlns:xlink="http://www.w3.org/1999/xlink"><defs><style type="text/css"></style></defs><path d="M807.424 608.256l132.096 384.512-246.784-76.8-47.104 78.848-67.584-238.08c93.184-18.944 174.08-74.24 229.376-148.48z m0 0" fill="#ED6766" p-id="4151"></path><path d="M201.216 608.256l-130.56 383.488 229.888-66.56L363.52 993.792l67.584-238.08c-93.696-17.92-174.592-73.216-229.888-147.456z m0 0" fill="#EA6869" p-id="4152"></path><path d="M153.6 388.608c0 195.072 158.208 352.768 352.768 352.768 195.072 0 352.768-158.208 352.768-352.768 0-195.072-158.208-352.768-352.768-352.768-194.56-0.512-352.768 157.696-352.768 352.768z m0 0" fill="#E69A4F" p-id="4153"></path><path d="M231.424 388.608c0 98.304 52.224 188.928 137.728 238.08 84.992 49.152 189.952 49.152 274.944 0s137.728-139.776 137.728-238.08c0-152.064-123.392-274.944-274.944-274.944-152.064-0.512-275.456 122.88-275.456 274.944z m0 0" fill="#E9B98C" p-id="4154"></path><path d="M399.872 516.608l20.992-27.648c19.968 20.992 45.568 38.912 83.968 38.912 39.936 0 68.608-24.064 68.608-62.464 0-40.448-27.136-67.584-104.96-67.584v-32.256c69.632 0 93.696-28.16 93.696-64.512 0-32.768-22.016-53.248-57.344-54.272-27.136 1.024-51.2 14.848-70.144 33.792l-22.528-26.624c25.088-23.552 55.296-40.448 94.208-40.448 56.832 0 98.304 30.208 98.304 84.992 0 40.96-24.576 68.096-60.416 81.408v2.048c39.936 9.216 71.68 39.424 71.68 85.504 0 60.416-48.128 96.256-108.032 96.256-52.736-1.024-86.016-23.04-108.032-47.104z" fill="#FFFFFF" p-id="4155"></path></svg>