<?xml version="1.0" standalone="no"?><!DOCTYPE svg PUBLIC "-//W3C//DTD SVG 1.1//EN" "http://www.w3.org/Graphics/SVG/1.1/DTD/svg11.dtd"><svg t="1684042626037" class="icon" viewBox="0 0 1024 1024" version="1.1" xmlns="http://www.w3.org/2000/svg" p-id="16947" xmlns:xlink="http://www.w3.org/1999/xlink" width="200" height="200"><path d="M810.669798 511.530275c0 220.582752-178.82422 399.416367-399.416367 399.416367-220.582752 0-399.406972-178.82422-399.406972-399.416367 0-220.592147 178.82422-399.416367 399.406972-399.416367 220.592147 0 399.416367 178.82422 399.416367 399.416367" fill="#F5F0FF" p-id="16948"></path><path d="M782.721174 259.626275H298.688587a41.223046 41.223046 0 0 0-41.223046 41.223046v484.041982a41.223046 41.223046 0 0 0 41.223046 41.223046h22.565578c8.624147 0 15.613651 6.989505 15.613652 15.594862v78.631927c0 10.99156 13.340183 16.46855 21.053064 8.624146l93.118238-94.658935a27.431927 27.431927 0 0 1 19.55934-8.192h312.122715a41.23244 41.23244 0 0 0 41.223046-41.223046V300.849321a41.23244 41.23244 0 0 0-41.223046-41.223046" fill="#FFB600" p-id="16949"></path><path d="M759.901945 784.881908V300.849321a41.223046 41.223046 0 0 0-41.223046-41.23244H298.679193a41.23244 41.23244 0 0 0-41.223046 41.241835v484.023192a41.223046 41.223046 0 0 0 41.223046 41.223046h22.574972c8.624147 0 15.613651 6.989505 15.613652 15.613652v43.543486l50.129027-50.965138a27.431927 27.431927 0 0 1 19.559339-8.192H718.678899a41.213651 41.213651 0 0 0 41.223046-41.223046" fill="#FFD500" p-id="16950"></path><path d="M324.79589 445.552734a32.411009 32.411009 0 0 1 32.411009-32.411009h226.520073a32.411009 32.411009 0 0 1 0 64.822018H357.206899a32.411009 32.411009 0 0 1-32.411009-32.411009M324.79589 569.513101a32.411009 32.411009 0 0 1 32.411009-32.411009h226.520073a32.411009 32.411009 0 0 1 0 64.822018H357.206899a32.411009 32.411009 0 0 1-32.411009-32.411009" fill="#FFFFFF" p-id="16951"></path><path d="M550.761688 392.00411h418.280514a35.623927 35.623927 0 0 1 35.623926 35.623927v418.280513a35.623927 35.623927 0 0 1-35.623926 35.623927h-19.502973c-7.459229 0-13.49989 6.040661-13.49989 13.490495v67.940991c0 9.507229-11.527046 14.223266-18.187743 7.449835l-80.473247-81.797871a23.664734 23.664734 0 0 0-16.900698-7.08345h-269.715963a35.623927 35.623927 0 0 1-35.623927-35.623927V427.628037a35.623927 35.623927 0 0 1 35.623927-35.623927" fill="#F4731C" p-id="16952"></path><path d="M837.387743 888.606532l41.053945 41.739743v-35.323303c0-7.459229 6.050055-13.49989 13.49989-13.499889h19.512367a35.605138 35.605138 0 0 0 35.605138-35.623927V427.618642a35.605138 35.605138 0 0 0-35.605138-35.605137H550.771083a35.605138 35.605138 0 0 0-35.623927 35.605137v418.280514a35.614532 35.614532 0 0 0 35.623927 35.623927h269.706568c6.360073 0 12.457101 2.555303 16.910092 7.083449" fill="#FF781D" p-id="16953"></path><path d="M614.240294 539.939229a32.411009 32.411009 0 0 1 32.411009-32.411009h226.520073a32.411009 32.411009 0 0 1 0 64.822019H646.651303a32.411009 32.411009 0 0 1-32.411009-32.41101M614.240294 663.899596a32.411009 32.411009 0 0 1 32.411009-32.411009h226.520073a32.411009 32.411009 0 1 1 0 64.822019H646.651303a32.411009 32.411009 0 0 1-32.411009-32.41101" fill="#FFFFFF" p-id="16954"></path><path d="M185.503706 296.424514c0 6.247339-5.073028 11.310972-11.310972 11.310972h-25.722128a11.310972 11.310972 0 1 1 0-22.621945h25.722128c6.247339 0 11.310972 5.073028 11.310972 11.310973M250.306936 296.424514c0 6.247339-5.063633 11.310972-11.310973 11.310972h-25.722128a11.310972 11.310972 0 1 1 0-22.621945h25.722128c6.247339 0 11.310972 5.073028 11.310973 11.310973M193.733284 304.663486c6.247339 0 11.310972 5.054239 11.310973 11.301578v25.722129a11.310972 11.310972 0 1 1-22.621945 0v-25.722129c0-6.247339 5.063633-11.310972 11.310972-11.310972M193.733284 239.841468c6.247339 0 11.310972 5.073028 11.310973 11.320367v25.722128a11.310972 11.310972 0 1 1-22.621945 0v-25.722128c0-6.247339 5.063633-11.310972 11.310972-11.310973" fill="#7BD721" p-id="16955"></path><path d="M96.293578 437.839853a16.975853 16.975853 0 1 1-33.951706 0 16.975853 16.975853 0 0 1 33.942311 0m-49.377467 0a32.401615 32.401615 0 1 0 64.803229 0 32.401615 32.401615 0 0 0-64.803229 0" fill="#00B1FF" p-id="16956"></path><path d="M31.65945 281.167853a15.256661 15.256661 0 1 1 0 30.513321 15.256661 15.256661 0 0 1 0-30.513321" fill="#5C3290" p-id="16957"></path></svg>