<?xml version="1.0" standalone="no"?><!DOCTYPE svg PUBLIC "-//W3C//DTD SVG 1.1//EN" "http://www.w3.org/Graphics/SVG/1.1/DTD/svg11.dtd"><svg t="1684042552565" class="icon" viewBox="0 0 1024 1024" version="1.1" xmlns="http://www.w3.org/2000/svg" p-id="14745" xmlns:xlink="http://www.w3.org/1999/xlink" width="200" height="200"><path d="M1024 512c0 282.72-229.28 512-512 512S0 794.72 0 512 229.28 0 512 0s512 229.28 512 512" fill="#5A89FF" p-id="14746"></path><path d="M638.24 828.64h-157.92c-13.44 0-24.32-10.88-24.32-24.32V236c0-13.44 10.88-24.32 24.32-24.32h157.92c13.44 0 24.32 10.88 24.32 24.32v568.32c0.16 13.44-10.72 24.32-24.32 24.32z m-133.44-48.64h109.12V260.32h-109.12v519.68z" fill="#FFFFFF" p-id="14747"></path><path d="M796.16 828.64h-157.92c-13.44 0-24.32-10.88-24.32-24.32V236c0-13.44 10.88-24.32 24.32-24.32h157.92c13.44 0 24.32 10.88 24.32 24.32v568.32c0 13.44-10.88 24.32-24.32 24.32z m-133.44-48.64h109.12V260.32h-109.12v519.68z" fill="#FFFFFF" p-id="14748"></path><path d="M362.08 828.64c-0.96 0-1.92 0-2.88-0.16l-134.24-15.84a24.32 24.32 0 0 1-21.28-27.04l63.2-552.64c0.8-6.4 4-12.32 9.12-16.32 5.12-4 11.68-5.76 18.08-4.96l126.24 15.84c13.12 1.6 22.56 13.44 21.28 26.56l-55.2 552.64c-0.64 6.56-3.84 12.48-8.96 16.64-4.48 3.36-9.92 5.28-15.36 5.28z m-107.36-61.44l85.44 10.08 50.4-504.32-78.24-9.76-57.6 504z" fill="#FFFFFF" p-id="14749"></path><path d="M692.96 378.08h48.64v47.36h-48.64z" fill="#FFFFFF" p-id="14750"></path><path d="M535.04 378.08h48.64v47.36h-48.64z" fill="#FFFFFF" p-id="14751"></path></svg>