<?xml version="1.0" encoding="UTF-8"?><svg width="242" height="219" viewBox="0 0 242 219" xmlns="http://www.w3.org/2000/svg" xmlns:xlink="http://www.w3.org/1999/xlink"><svg width="18" height="18" viewBox="-1 -1 18 18" id="action3617a0c349cc51cdcad47fccadfb719d" x="170" y="90"><title>动态</title><path d="M7.91 7.512L5.558 6.6 7.91 5.233 9.79 6.6l-1.88.912zm3.183-1.341L7.837 4.256 4.581 6.17v3.83l1.396.958c.185-.398.35-.68.465-.958l-.93-.478V7.607l2.325 1.437 2.326-1.437v1.916l-1.86.957c-.186.037-.321 0-.466 0a.944.944 0 0 0-.93.958c0 .528.417.957.93.957.514 0 .93-.429.93-.957 0-.023-.005-.043 0 0L11.093 10v-3.83zM1.933 8C1.938 4.65 4.667 1.933 8 1.933a6.12 6.12 0 0 1 6.067 5.134H15C14.54 3.643 11.6 1 8 1 4.15 1 1 4.134 1 8s3.15 7 7 7c3.6 0 6.54-2.643 7-6.067h-.933A6.12 6.12 0 0 1 8 14.067c-3.333 0-6.062-2.717-6.067-6.067z" fill="#C1C1C1" fill-rule="evenodd"/></svg><svg width="26" height="26" viewBox="-1 -1 26 26" id="activities6a89675ab6436fd50614e61cfa074ada" x="30" y="107"><title>参与活动24px</title><g fill="none" fill-rule="evenodd"><path stroke="#333" stroke-width="2" d="M19 2h4v21h-4M7.754 17A3.788 3.788 0 0 0 7 19.281C7 21.335 8.607 23 10.59 23c1.59 0 2.937-1.07 3.41-2.551"/><path fill="#00A4FF" d="M17 3L7 8.737V14l10 5z"/><path stroke="#333" stroke-width="2" d="M3 10H1v5h2M4 9.661v5.721l14 7V2.622L4 9.662z"/></g></svg><svg id="article95ed9625a8228b05c38a8c28a615e3b1" viewBox="-1 -1 18 18" enable-background="new 0 0 16 16" width="18" height="18" x="92" y="135"><style>.acst0{filter:url(#acAdobe_OpacityMaskFilter)}.acst2,.acst3{stroke:#c1c1c1}.acst2{mask:url(#acmask-2);stroke-width:.5}.acst3{fill:none}</style><title>文章</title><g id="ac文章"><g id="acGroup-3" transform="translate(2 2)"><defs><filter id="acAdobe_OpacityMaskFilter" filterUnits="userSpaceOnUse" x="-.2" y="-.2" width="13.5" height="13.6"><feColorMatrix values="1 0 0 0 0 0 1 0 0 0 0 0 1 0 0 0 0 0 1 0"/></filter></defs><mask maskUnits="userSpaceOnUse" x="-.2" y="-.2" width="13.5" height="13.6" id="acmask-2"><g class="acst0"><path id="acpath-1" class="acst1" fill="#fff" d="M0 0h13v13.1H0z"/></g></mask><path id="acFill-1" class="acst2" fill="#C1C1C1" d="M11.2 3.1v.8h1.1v7.3c0 .7-.5 1.2-1.1 1.2-.6 0-1.1-.5-1.1-1.2V0H0v10.7C0 12 1 13 2.2 13h9c1 0 1.8-.8 1.8-1.9v-8h-1.8zM.7 10.8V.8h8.7v10.4c0 .4.1.8.4 1.2H2.2c-.8-.1-1.5-.8-1.5-1.6z"/></g></g><path class="acst3" d="M4.8 5.6h4.7v4.2H4.8zM4.3 11.8H10"/></svg><svg width="18" height="18" viewBox="-1 -1 18 18" id="ask8d6781d75608eae47613cc44f732b4f9" x="170" y="36"><title>问答</title><g transform="translate(1 2)" fill="#C1C1C1" fill-rule="evenodd"><path d="M7.1 2.2c-.937 0-1.7.734-1.7 1.636 0 .293.247.531.552.531a.542.542 0 0 0 .553-.531c0-.316.267-.573.595-.573.328 0 .595.257.595.573a.585.585 0 0 1-.595.573.542.542 0 0 0-.552.531v.729c0 .293.247.531.552.531a.542.542 0 0 0 .552-.531v-.286C8.32 5.162 8.8 4.552 8.8 3.836c0-.902-.763-1.636-1.7-1.636zM6.6 7.2a.6.6 0 1 0 1.2 0 .6.6 0 0 0-1.2 0z"/><path d="M1.062 0h11.877C13.524 0 14 .477 14 1.063v7.69c0 .586-.476 1.063-1.061 1.063H9.622l.156 1.207a.77.77 0 0 1-.744.977.815.815 0 0 1-.46-.146L5.82 9.816H1.062A1.064 1.064 0 0 1 0 8.753v-7.69C0 .477.476 0 1.062 0zm4.935 8.734c.115 0 .228.037.32.106l2.31 1.708-.155-1.203a.544.544 0 0 1 .536-.61l3.912.018.019-7.67-11.859-.02-.018 7.671h4.935z"/></g></svg><svg width="10" height="7" viewBox="-1 -1 10 7" fill="#fff" id="btn-icon-arrow6ab34fc2a4474e4f0d066ad53c0c1b29" x="170" y="144"><title>Fill 1</title><path d="M7.333 0L4 3.571.668 0 0 .714l3.333 3.572L4 5l.667-.714L8 .714z" fill-rule="evenodd"/></svg><svg width="10" height="7" viewBox="-1 -1 10 7" fill="#00a4ff" id="btn-icon-arrow87a8b190e9f431aa2cb9d18805034513" x="224" y="199"><title>Fill 1</title><path d="M7.333 0L4 3.571.668 0 0 .714l3.333 3.572L4 5l.667-.714L8 .714z" fill-rule="evenodd"/></svg><svg width="10" height="7" viewBox="-1 -1 10 7" id="btn-icon-arrow928de87239a21588860cf8f0a1e040d1" x="188" y="162"><title>Fill 1</title><path d="M7.333 0L4 3.571.668 0 0 .714l3.333 3.572L4 5l.667-.714L8 .714z" fill-rule="evenodd"/></svg><svg width="17" height="10" viewBox="-1 -1 17 10" id="caret5c4ab9fb86f6499aa4211725b81c9c7c" x="224" y="72"><title>Group</title><g stroke="#979797" fill="none" fill-rule="evenodd" stroke-linecap="square"><path d="M.5.5l7 7M14.5.5l-7 7"/></g></svg><svg width="14" height="14" viewBox="-1 -1 14 14" id="closecf4502cec312d74703ec63e0c2be91ab" x="224" y="148"><title>画板</title><path d="M10.95 2.464L7.414 6l3.536 3.536-1.414 1.414L6 7.414 2.464 10.95 1.05 9.536l3.536-3.537L1.05 2.464 2.464 1.05l3.537 3.535L9.536 1.05l1.414 1.414z" fill="#FFF" fill-rule="evenodd" opacity=".5"/></svg><svg width="26" height="26" viewBox="-1 -1 26 26" id="columnc492e3bb92d179f052d2b7ed8b20f602" x="56" y="107"><title>我的专栏</title><g fill="none" fill-rule="evenodd"><path stroke="#222733" stroke-width="2" d="M2 2h20v20H2z"/><path d="M9 2v7.586l3-3 3 3V2H9z" stroke="#222733" stroke-width="2"/><path fill="#00A4FF" d="M5 14h14v5H5z"/></g></svg><svg width="30" height="28" viewBox="-1 -1 30 28" id="douhaoda2b50defc40ded68d598350602a51cc" y="107"><title>引号</title><path d="M13 1.147v4.668c0 .633-.554 1.146-1.237 1.146-2.438 0-3.764 2.317-3.948 6.89h3.948c.683 0 1.237.513 1.237 1.146v9.857c0 .633-.554 1.146-1.237 1.146H1.237C.554 26 0 25.486 0 24.854v-9.857c0-2.192.239-4.204.707-5.98.482-1.82 1.221-3.413 2.197-4.732a10.47 10.47 0 0 1 3.733-3.161C8.121.378 9.845 0 11.764 0 12.446 0 13 .514 13 1.147zM26.763 6.96c.683 0 1.237-.514 1.237-1.146V1.146C28 .513 27.446 0 26.763 0c-1.917 0-3.643.378-5.125 1.124a10.462 10.462 0 0 0-3.734 3.16c-.976 1.32-1.715 2.912-2.197 4.734-.469 1.777-.707 3.788-.707 5.979v9.857c0 .633.554 1.146 1.237 1.146h10.526c.683 0 1.237-.514 1.237-1.146v-9.857c0-.633-.554-1.146-1.237-1.146H22.87c.182-4.574 1.49-6.89 3.893-6.89z" fill="#F3F5F9" fill-rule="evenodd"/></svg><svg data-name="图层 1" viewBox="-1 -1 15 12" fill="#00a4ff" width="15" height="12" id="editor-trigger15701411f4790a166776a5c1c0f6c0a0" x="224" y="82"><title>go-web</title><path d="M8 10L7 9l3.2-3.2H0V4.2h10.2L7 1l1-1 5 5-5 5z" data-name="icons/go-web"/></svg><svg data-name="图层 1" viewBox="-1 -1 15 12" fill="#999" width="15" height="12" id="editor-trigger9f0a768c673618ed376221d736d2c505" x="224" y="94"><title>go-web</title><path d="M8 10L7 9l3.2-3.2H0V4.2h10.2L7 1l1-1 5 5-5 5z" data-name="icons/go-web"/></svg><svg width="26" height="26" viewBox="-1 -1 26 26" id="followb95c798b4c58db3ba4d94a0cbeda84ec" x="102" y="46"><title>我的订阅 copy 4</title><defs><path id="anb" d="M1348 681h330v210h-330z"/><filter x="-11.2%" y="-20%" width="122.4%" height="135.2%" filterUnits="objectBoundingBox" id="ana"><feMorphology radius=".5" operator="dilate" in="SourceAlpha" result="shadowSpreadOuter1"/><feOffset dy="-5" in="shadowSpreadOuter1" result="shadowOffsetOuter1"/><feGaussianBlur stdDeviation="11" in="shadowOffsetOuter1" result="shadowBlurOuter1"/><feColorMatrix values="0 0 0 0 0.811764706 0 0 0 0 0.847058824 0 0 0 0 0.866666667 0 0 0 0.701200181 0" in="shadowBlurOuter1"/></filter></defs><g transform="translate(-1395 -820)" fill="none" fill-rule="evenodd"><g transform="matrix(1 0 0 -1 0 1572)"><use fill="#000" filter="url(#ana)" xlink:href="#anb"/><use fill="#FFF" xlink:href="#anb"/></g><g transform="translate(1395 820)"><path stroke="#222733" stroke-width="2" d="M23 3v18H1V3z"/><path fill="#00A4FF" d="M6 4l8 8 7-8z"/><path d="M1 20.918L8.98 12m6.102.061l7.98 8.919M1 3l11 12L23 3" stroke="#222733" stroke-width="2"/></g></g></svg><svg id="hd-tag5e28baf66c008be9656f8846a18d5941" width="34" height="34" viewBox="-1 -1 34 34" y="73"><style>.aost0{fill-rule:evenodd;clip-rule:evenodd}</style><g id="aoXMLID_2_"><g id="aoXMLID_48_"><path id="aoXMLID_49_" class="aost0" fill="#999" d="M29 6.1c0-2.2-1.8-4-4-4L16.6 2 3.1 15.4c-1.5 1.5-1.5 4 .1 5.6l7.1 7.1c1.6 1.6 4.1 1.6 5.6.1l13.3-13.3-.2-8.8zm-3.5 9.6L24.2 17l-9.7 9.7c-.8.8-2 .8-2.8 0l-7.1-7.1c-.8-.8-.8-2 0-2.8l9.7-9.7 1.3-1.3 1.9-1.9 7.8.1c1.1 0 2 .9 2 2l.1 7.8-1.9 1.9zm-4.6-8.1c-.8.8-.8 2 0 2.8.8.8 2 .8 2.8 0 .8-.8.8-2 0-2.8-.8-.8-2.1-.8-2.8 0z"/></g></g></svg><svg width="18" height="18" viewBox="-1 -1 18 18" fill="#666" id="icon-align-center58e4b3e0f36d6efc0afd9caefe561253" x="180" y="171"><path d="M1 2v2h14V2H1zm2 5v2h10V7H3zm-2 7h14v-2H1v2z"/></svg><svg width="18" height="18" viewBox="-1 -1 18 18" fill="#00a4ff" id="icon-align-center9c2df868d5713c1ba0b52f939c82ba9f" x="206"><path d="M1 2v2h14V2H1zm2 5v2h10V7H3zm-2 7h14v-2H1v2z"/></svg><svg width="18" height="18" viewBox="-1 -1 18 18" fill="#00a4ff" id="icon-align-left84df4c89f4cfefc27127b4c4a206a257" x="206" y="18"><path d="M1 12h14v2H1v-2zM1 2h14v2H1V2zm10 7H1V7h10v2z"/></svg><svg width="18" height="18" viewBox="-1 -1 18 18" fill="#666" id="icon-align-leftf49f2bca7458fd7609aec2f18e41bd25" x="206" y="36"><path d="M1 12h14v2H1v-2zM1 2h14v2H1V2zm10 7H1V7h10v2z"/></svg><svg width="18" height="18" viewBox="-1 -1 18 18" fill="#666" id="icon-align-rightcd66737291c0b2608d1ebebaa9c0e8f2" x="206" y="54"><path d="M1 2v2h14V2H1zm4 7h10V7H5v2zm-4 5h14v-2H1v2z"/></svg><svg width="18" height="18" viewBox="-1 -1 18 18" fill="#00a4ff" id="icon-align-rightf39af114fa59cf088f036d95d584376e" x="206" y="156"><path d="M1 2v2h14V2H1zm4 7h10V7H5v2zm-4 5h14v-2H1v2z"/></svg><svg id="icon-arrow-bottomfd7604eb9c61610dcbe3c21e71a023d4" viewBox="-1 -1 18 18" fill="#999" width="18" height="18" y="189"><style>.avst0{display:none}</style><path id="avbottom" class="avst0" d="M2 5.3l.7-.6L8 10l5.3-5.3.7.6-6 6z"/><path id="avtop" class="avst1" d="M8 11.3l-6-6 .7-.6L8 10l5.3-5.3.7.6z"/></svg><svg width="14" height="9" viewBox="-1 -1 14 9" id="icon-arrow-downbfe37cf512c64f82e27cf3c5135b1f32" x="224" y="176"><title>返回 (1)</title><path d="M1.12.5l-.62.608L6 6.5l5.5-5.392L10.88.5 6 5.283z" fill="#5D5D5D" fill-rule="evenodd"/></svg><svg id="icon-arrow-rightae4a239777a02e22420020f3e6cdb112" data-name="图层 1" width="18" height="18" viewBox="-1 -1 18 18" fill="#666" x="130" y="107"><defs><style/></defs><title>展开</title><path class="axcls-1" d="M13 6.65L9 3 7.54 4.3l4 3.7-4 3.7L9 13l4-3.7L14.46 8zm-6 0L3 3 1.54 4.3 5.5 8l-4 3.7L3 13l4-3.7L8.46 8z"/></svg><svg id="icon-arrow-rightbbfb12839460b1518de2a478a779e0df" data-name="图层 1" width="18" height="18" viewBox="-1 -1 18 18" fill="#00a4ff" x="20" y="135"><defs><style/></defs><title>展开</title><path class="aycls-1" d="M13 6.65L9 3 7.54 4.3l4 3.7-4 3.7L9 13l4-3.7L14.46 8zm-6 0L3 3 1.54 4.3 5.5 8l-4 3.7L3 13l4-3.7L8.46 8z"/></svg><svg width="18" height="18" viewBox="-1 -1 18 18" id="icon-article9fc3830cb46645bd60062d117ae4ad98" x="38" y="135"><title>Artboard</title><path d="M11.865 4.998c-1.045 0-1.895-.834-1.895-1.858V1H3.154C2.516 1 2 1.507 2 2.131V13.87c0 .624.516 1.13 1.154 1.13h9.693c.637 0 1.153-.506 1.153-1.13V4.998h-2.135zm-7.962 7.484h8.194v-.758H3.903v.758zm0-2.425h8.194V9.3H3.903v.757zm0-2.424h8.194v-.758H3.903v.758zM10.712 1v2.14c0 .624.516 1.13 1.153 1.13H14L10.712 1z" fill="#999" fill-rule="evenodd"/></svg><svg width="18" height="18" viewBox="-1 -1 18 18" id="icon-article9fc3830cb46645bd60062d117ae4ad98" x="56" y="135"><title>Artboard</title><path d="M11.865 4.998c-1.045 0-1.895-.834-1.895-1.858V1H3.154C2.516 1 2 1.507 2 2.131V13.87c0 .624.516 1.13 1.154 1.13h9.693c.637 0 1.153-.506 1.153-1.13V4.998h-2.135zm-7.962 7.484h8.194v-.758H3.903v.758zm0-2.425h8.194V9.3H3.903v.757zm0-2.424h8.194v-.758H3.903v.758zM10.712 1v2.14c0 .624.516 1.13 1.153 1.13H14L10.712 1z" fill="#999" fill-rule="evenodd"/></svg><svg width="18" height="18" viewBox="-1 -1 18 18" fill="#00a4ff" id="icon-articled4c7d55b2478c35387918d35fc68c37c" x="74" y="135"><title>Artboard</title><path d="M11.865 4.998c-1.045 0-1.895-.834-1.895-1.858V1H3.154C2.516 1 2 1.507 2 2.131V13.87c0 .624.516 1.13 1.154 1.13h9.693c.637 0 1.153-.506 1.153-1.13V4.998h-2.135zm-7.962 7.484h8.194v-.758H3.903v.758zm0-2.425h8.194V9.3H3.903v.757zm0-2.424h8.194v-.758H3.903v.758zM10.712 1v2.14c0 .624.516 1.13 1.153 1.13H14L10.712 1z" fill-rule="evenodd"/></svg><svg width="22" height="22" viewBox="-1 -1 22 22" id="icon-aska6e1d198a4c780f1ae4c69989251768e" x="148" y="88"><title>矩形复制 16</title><path d="M7 16.865L10.438 14H16V4H4v10h3v2.865z" stroke="#888" stroke-width="2" fill="none" fill-rule="evenodd"/></svg><svg id="icon-blockquote557aea9fec082f13992ee1a67cd42c7f" data-name="图层 1" width="18" height="18" viewBox="-1 -1 18 18" fill="#00a4ff" x="110" y="135"><defs><style/></defs><title>icon</title><path class="bdcls-1" d="M13 5V3C9 3 9 8 9 8v5h4V8h-2c0-1 0-3 2-3zM3 8v5h4V8H5c0-1 0-3 2-3V3C3 3 3 8 3 8z"/></svg><svg id="icon-blockquote85334b64f9dfd69be27ba176db46a096" data-name="图层 1" width="18" height="18" viewBox="-1 -1 18 18" fill="#666" x="128" y="135"><defs><style/></defs><title>icon</title><path class="becls-1" d="M13 5V3C9 3 9 8 9 8v5h4V8h-2c0-1 0-3 2-3zM3 8v5h4V8H5c0-1 0-3 2-3V3C3 3 3 8 3 8z"/></svg><svg id="icon-boldd1fb61819c22e9a1ee37e3257123e675" data-name="图层 1" width="18" height="18" viewBox="-1 -1 18 18" fill="#00a4ff" x="146" y="135"><defs><style/></defs><title>icon</title><path class="bfcls-1" d="M10.5 8c1 0 2-1.53 2-2.52A3.5 3.5 0 0 0 9 2H3.5v12h5.57a3.43 3.43 0 0 0 3.43-3.43c0-1-1-2.57-2-2.57zm-5-4H9a1.5 1.5 0 0 1 0 3H5.5zm3.57 8H5.5V9h3.43a1.57 1.57 0 0 1 1.57 1.57A1.43 1.43 0 0 1 9.07 12z"/></svg><svg id="icon-bolde453749a6af83374d7b87fab138110ac" data-name="图层 1" width="18" height="18" viewBox="-1 -1 18 18" fill="#666" x="170"><defs><style/></defs><title>icon</title><path class="bgcls-1" d="M10.5 8c1 0 2-1.53 2-2.52A3.5 3.5 0 0 0 9 2H3.5v12h5.57a3.43 3.43 0 0 0 3.43-3.43c0-1-1-2.57-2-2.57zm-5-4H9a1.5 1.5 0 0 1 0 3H5.5zm3.57 8H5.5V9h3.43a1.57 1.57 0 0 1 1.57 1.57A1.43 1.43 0 0 1 9.07 12z"/></svg><svg id="icon-code-block608959cd096a923d092bc983633d3b40" data-name="图层 1" width="20" height="18" viewBox="-1 -1 20 18" fill="#00a4ff" y="135"><defs><style>.bhcls-1{fill:none;clip-rule:evenodd}.bhcls-2{fill-rule:evenodd}.cls-3{clip-path:url(#bhclip-path)}.cls-4{clip-path:url(#bhclip-path-2)}</style><clipPath id="bhclip-path"><path class="bhcls-1" d="M-19 1h14v14h-14zm6 12V9h-4v4zm2 0h4V9h-4zm-2-10h-4v4h4zm2 0v4h4V3z"/></clipPath><clipPath id="bhclip-path-2"><path class="bhcls-1" d="M298.73 109.37l-1.42 1.41-5.07-5.07 5.07-5.07 1.42 1.41-3.66 3.66 3.66 3.66z"/></clipPath></defs><title>123</title><path class="bhcls-2" d="M12.34 5.17l1.41-1.41 2.83 2.83L18 8l-1.41 1.41-2.83 2.83-1.41-1.41L15.17 8zM9.24 2h2l-3 12h-2zM1.41 6.59l2.83-2.83 1.42 1.41L2.83 8l2.83 2.83-1.42 1.41-2.83-2.83L0 8z"/></svg><svg id="icon-code-block726efd1ef66581799101958870053181" data-name="图层 1" width="20" height="18" viewBox="-1 -1 20 18" fill="#666" x="128" y="46"><defs><style>.bicls-1{fill:none;clip-rule:evenodd}.bicls-2{fill-rule:evenodd}.cls-3{clip-path:url(#biclip-path)}.cls-4{clip-path:url(#biclip-path-2)}</style><clipPath id="biclip-path"><path class="bicls-1" d="M-19 1h14v14h-14zm6 12V9h-4v4zm2 0h4V9h-4zm-2-10h-4v4h4zm2 0v4h4V3z"/></clipPath><clipPath id="biclip-path-2"><path class="bicls-1" d="M298.73 109.37l-1.42 1.41-5.07-5.07 5.07-5.07 1.42 1.41-3.66 3.66 3.66 3.66z"/></clipPath></defs><title>123</title><path class="bicls-2" d="M12.34 5.17l1.41-1.41 2.83 2.83L18 8l-1.41 1.41-2.83 2.83-1.41-1.41L15.17 8zM9.24 2h2l-3 12h-2zM1.41 6.59l2.83-2.83 1.42 1.41L2.83 8l2.83 2.83-1.42 1.41-2.83-2.83L0 8z"/></svg><svg id="icon-code78cfcd60a3ad0838dc868a9c6b2fe2c7" data-name="图层 1" width="18" height="18" viewBox="-1 -1 18 18" fill="#00a4ff" x="170" y="54"><defs><style/></defs><title>icon</title><path class="bjcls-1" d="M8 12a2.5 2.5 0 0 1-2.5-2.5v-3a2.5 2.5 0 0 1 4.97-.5h2a4.49 4.49 0 0 0-8.95.5v3a4.49 4.49 0 0 0 8.95.5h-2A2.5 2.5 0 0 1 8 12z"/></svg><svg id="icon-codeac432debadd77f1e74357226df55ba8d" data-name="图层 1" width="18" height="18" viewBox="-1 -1 18 18" fill="#666" x="170" y="72"><defs><style/></defs><title>icon</title><path class="bkcls-1" d="M8 12a2.5 2.5 0 0 1-2.5-2.5v-3a2.5 2.5 0 0 1 4.97-.5h2a4.49 4.49 0 0 0-8.95.5v3a4.49 4.49 0 0 0 8.95.5h-2A2.5 2.5 0 0 1 8 12z"/></svg><svg width="46" height="46" viewBox="-1 -1 46 46" id="icon-column7bc11b8dc0f0baae5a356dc896bc9d93" x="102"><title>Combined Shape Copy</title><g transform="translate(2 5)" fill="none" fill-rule="evenodd"><path d="M38.067 9H2v23h14v2H0V0h40v22h-1.933V9zm0-2V2H2v5h36.067z" fill="#344966"/><path fill="#00A4FF" d="M6 18h14v-2H6zM6 24h10v-2H6z"/><g transform="translate(19 15)" stroke-width="2"><circle stroke="#334966" cx="10" cy="5" r="4"/><path d="M1 18h18v-3a5 5 0 0 0-5-5H6a5 5 0 0 0-5 5v3z" stroke="#344966" fill="#00A4FF"/></g></g></svg><svg width="18" height="18" viewBox="-1 -1 18 18" fill="#666" id="icon-del-col5cc9d0c2c3384f67239b7e8057b73b37" x="170" y="108"><path d="M15.328 13.621l-.707.707-2.121-2.121-2.121 2.121-.707-.707 2.121-2.121-2.121-2.121.707-.707 2.121 2.121 2.121-2.121.707.707-2.121 2.121 2.121 2.121zM11 0h2v6h-2V0zM2 14H0V0h8v14H2zM6 2H2v4h4V2zm0 6H2v4h4V8z" fill-rule="evenodd" clip-rule="evenodd"/></svg><svg width="18" height="18" viewBox="-1 -1 18 18" fill="#00a4ff" id="icon-del-cold9a00e0541f7e7d8a4ec244f4a4102aa" x="170" y="126"><path d="M15.328 13.621l-.707.707-2.121-2.121-2.121 2.121-.707-.707 2.121-2.121-2.121-2.121.707-.707 2.121 2.121 2.121-2.121.707.707-2.121 2.121 2.121 2.121zM11 0h2v6h-2V0zM2 14H0V0h8v14H2zM6 2H2v4h4V2zm0 6H2v4h4V8z" fill-rule="evenodd" clip-rule="evenodd"/></svg><svg width="18" height="18" viewBox="-1 -1 18 18" fill="#00a4ff" id="icon-del-row4b91e81e486ebca7818467a36ea6a6d9" y="153"><path d="M13.621.672l.707.707L12.207 3.5l2.121 2.121-.707.707L11.5 4.207 9.379 6.328l-.707-.707L10.793 3.5 8.672 1.379l.707-.707L11.5 2.793 13.621.672zM0 5V3h6v2H0zm14 9v2H0V8h14v6zM2 10v4h4v-4H2zm6 0v4h4v-4H8z" fill-rule="evenodd" clip-rule="evenodd"/></svg><svg width="18" height="18" viewBox="-1 -1 18 18" fill="#666" id="icon-del-row74d45a3dcc0e3141dd8bb20cde443b49" x="18" y="153"><path d="M13.621.672l.707.707L12.207 3.5l2.121 2.121-.707.707L11.5 4.207 9.379 6.328l-.707-.707L10.793 3.5 8.672 1.379l.707-.707L11.5 2.793 13.621.672zM0 5V3h6v2H0zm14 9v2H0V8h14v6zM2 10v4h4v-4H2zm6 0v4h4v-4H8z" fill-rule="evenodd" clip-rule="evenodd"/></svg><svg width="18" height="18" viewBox="-1 -1 18 18" fill="#666" id="icon-del-table0b1b3b87bf952744116e2e4356684798" x="36" y="153"><path d="M14 0H0v14h8V8h6V0zM6 12H2V8h4v4zm0-6H2V2h4v4zm6 0H8V2h4v4zm3.328 4.379l-.707-.707-2.121 2.121-2.121-2.121-.707.707 2.121 2.121-2.121 2.121.707.707 2.121-2.121 2.121 2.121.707-.707-2.121-2.121 2.121-2.121z" fill-rule="evenodd" clip-rule="evenodd"/></svg><svg width="18" height="18" viewBox="-1 -1 18 18" fill="#00a4ff" id="icon-del-table12f17941dc912fd66207886540732d72" x="54" y="153"><path d="M14 0H0v14h8V8h6V0zM6 12H2V8h4v4zm0-6H2V2h4v4zm6 0H8V2h4v4zm3.328 4.379l-.707-.707-2.121 2.121-2.121-2.121-.707.707 2.121 2.121-2.121 2.121.707.707 2.121-2.121 2.121 2.121.707-.707-2.121-2.121 2.121-2.121z" fill-rule="evenodd" clip-rule="evenodd"/></svg><svg id="icon-delete-link3da5f061a0c7f66132f1220cd6e84298" data-name="图层 1" width="18" height="18" viewBox="-1 -1 18 18" fill="#666" x="72" y="153"><defs><style/></defs><title>删除链接</title><path class="bscls-1" d="M7.82 6.06l1.41-1.41.54-.54.53-.53a1.5 1.5 0 1 1 2.12 2.12l-.53.53-.54.54-1.41 1.41 1.41 1.42 2.47-2.47a3.5 3.5 0 0 0-4.94-4.96L6.4 4.65zM8.18 9.94l-1.41 1.41-.54.54-.53.53a1.5 1.5 0 1 1-2.12-2.12l.53-.53.54-.54 1.41-1.41L4.65 6.4 2.17 8.88a3.5 3.5 0 1 0 4.95 4.95l2.48-2.48z"/><path class="bscls-1" transform="rotate(-45 3.759 3.763)" d="M2.76 2.26h2v3h-2z"/><path class="bscls-1" transform="rotate(-45 6.233 1.988)" d="M5.23.99h2v2h-2z"/><path class="bscls-1" transform="rotate(-45 1.989 6.226)" d="M.99 5.23h2v2h-2z"/><path class="bscls-1" transform="rotate(-45 12.24 12.24)" d="M11.24 10.74h2v3h-2z"/><path class="bscls-1" transform="rotate(-45 14.015 9.765)" d="M13.01 8.77h2v2h-2z"/><path class="bscls-1" transform="rotate(-45 9.765 14.015)" d="M8.77 13.01h2v2h-2z"/></svg><svg id="icon-delete-linka5b7f6cad3dd69c3a1bc34e568c4835b" data-name="图层 1" width="18" height="18" viewBox="-1 -1 18 18" fill="#00a4ff" x="90" y="153"><defs><style/></defs><title>删除链接</title><path class="btcls-1" d="M7.82 6.06l1.41-1.41.54-.54.53-.53a1.5 1.5 0 1 1 2.12 2.12l-.53.53-.54.54-1.41 1.41 1.41 1.42 2.47-2.47a3.5 3.5 0 0 0-4.94-4.96L6.4 4.65zM8.18 9.94l-1.41 1.41-.54.54-.53.53a1.5 1.5 0 1 1-2.12-2.12l.53-.53.54-.54 1.41-1.41L4.65 6.4 2.17 8.88a3.5 3.5 0 1 0 4.95 4.95l2.48-2.48z"/><path class="btcls-1" transform="rotate(-45 3.759 3.763)" d="M2.76 2.26h2v3h-2z"/><path class="btcls-1" transform="rotate(-45 6.233 1.988)" d="M5.23.99h2v2h-2z"/><path class="btcls-1" transform="rotate(-45 1.989 6.226)" d="M.99 5.23h2v2h-2z"/><path class="btcls-1" transform="rotate(-45 12.24 12.24)" d="M11.24 10.74h2v3h-2z"/><path class="btcls-1" transform="rotate(-45 14.015 9.765)" d="M13.01 8.77h2v2h-2z"/><path class="btcls-1" transform="rotate(-45 9.765 14.015)" d="M8.77 13.01h2v2h-2z"/></svg><svg id="icon-delete491f4394134f154404123d47ea31bd77" data-name="图层 1" width="18" height="18" viewBox="-1 -1 18 18" fill="#00a4ff" x="108" y="153"><defs><style/></defs><title>icon</title><path class="bucls-1" d="M13 3h-2V1H5v2H2v1h1v9a2 2 0 0 0 2 2h6a2 2 0 0 0 2-2V4h1V3zM6 2h4v1H6zm5 12H5a1 1 0 0 1-1-1V4h8v9a1 1 0 0 1-1 1z"/><path class="bucls-1" d="M6 6h1v6H6zM9 6h1v6H9z"/></svg><svg id="icon-delete5164a3f47673f8baca7dff18a3cadedc" data-name="图层 1" width="18" height="18" viewBox="-1 -1 18 18" fill="#999" x="126" y="153"><defs><style/></defs><title>icon</title><path class="bvcls-1" d="M13 3h-2V1H5v2H2v1h1v9a2 2 0 0 0 2 2h6a2 2 0 0 0 2-2V4h1V3zM6 2h4v1H6zm5 12H5a1 1 0 0 1-1-1V4h8v9a1 1 0 0 1-1 1z"/><path class="bvcls-1" d="M6 6h1v6H6zM9 6h1v6H9z"/></svg><svg width="46" height="46" viewBox="-1 -1 46 46" id="icon-draft9d5ebde554ee6a1f24f01280e59ec1b2" y="27"><title>Combined Shape Copy 2</title><g transform="translate(4 4)" fill="none" fill-rule="evenodd"><path fill="#334966" fill-rule="nonzero" d="M2 6h28v9h2V4H0v32h16v-2H2z"/><path d="M11 2v2h10V2H11zM9 0h14v6H9V0z" fill="#334966" fill-rule="nonzero"/><g transform="translate(6 13)" fill="#00A4FF"><path fill-rule="nonzero" d="M0 6h14v2H0zM0 12h10v2H0zM0 0h18v2H0z"/><path d="M26.263 6.121L14.318 18.067l.177 4.066 4.066.176 11.945-11.945-4.243-4.243z" stroke="#334966" stroke-width="2"/></g></g></svg><svg width="22" height="22" viewBox="-1 -1 22 22" id="icon-followb4f0701d4927eabd1b7501ff47413dd4" x="148" y="66"><title>矩形复制 17</title><path d="M10.48 6.153l-.545.544-.036-.031-.035.031-.545-.544-.088-.078a3.766 3.766 0 0 0-5.316 5.315l.078.089L9.9 17.385l5.907-5.906.078-.089a3.766 3.766 0 0 0-5.316-5.315l-.088.078z" stroke="#888" stroke-width="2" fill="none" fill-rule="evenodd"/></svg><svg width="46" height="46" viewBox="-1 -1 46 46" id="icon-followed-columnb0298bb33e41f0b82d91283dd15c9c2c" x="46" y="27"><title>Combined Shape</title><g transform="translate(1 5)" fill="none" fill-rule="evenodd"><path d="M38.067 9H2v23h18.667v2H0V0h40v14h-1.933V9zm0-2V2H2v5h36.067z" fill="#334966"/><path fill="#00A4FF" d="M6 18h14v-2H6zM6 24h10v-2H6z"/><g transform="translate(22 15)"><circle stroke="#334966" stroke-width="2" fill="#00A4FF" cx="10" cy="10" r="9"/><path d="M10.5 6.5h-1v3h-3v1h3v3h1v-3h3v-1h-3v-3z" stroke="#FFF"/></g></g></svg><svg id="icon-h147d9266aaaaecd473650e113848f2c9f" width="18" height="18" viewBox="-4 0 18 18" fill="#666" x="188" y="18"><style/><title>Combined Shape</title><g id="bz文章编辑器"><g id="bz普通" transform="translate(-410 -177)"><path id="bzCombined-Shape" class="bzst0" d="M420.3 192v-2.4h-.8v-.5h.5c.1 0 .3-.1.3-.2.1-.1.1-.1.1-.3v-.1h.6v3.5h-.7zm-4.3-12h2v12h-2v-5h-5v5h-2v-12h2v5h5v-5z"/></g></g></svg><svg id="icon-h14b8dfcaa2e135891d8d56a60e57426c6" width="18" height="18" viewBox="-4 0 18 18" fill="#00a4ff" x="188" y="36"><style/><title>Combined Shape</title><g id="ca文章编辑器"><g id="ca普通" transform="translate(-410 -177)"><path id="caCombined-Shape" class="cast0" d="M420.3 192v-2.4h-.8v-.5h.5c.1 0 .3-.1.3-.2.1-.1.1-.1.1-.3v-.1h.6v3.5h-.7zm-4.3-12h2v12h-2v-5h-5v5h-2v-12h2v5h5v-5z"/></g></g></svg><svg id="icon-h26d9aefdd63783c4ac2fbaafb261dd4d0" width="18" height="18" viewBox="-4 1 18 18" fill="#666" x="188" y="54"><style/><title>Combined Shape</title><g id="cb文章编辑器"><g id="cb普通" transform="translate(-441 -177)"><path id="cbCombined-Shape" class="cbst0" d="M451.4 191.6c.3-.2.5-.4.6-.5.1-.2.2-.3.2-.5 0-.1 0-.3-.1-.4-.1-.1-.2-.1-.4-.1s-.4.1-.4.2-.1.2-.1.4h-.7c0-.3.1-.5.2-.7.2-.4.5-.5 1-.5.4 0 .7.1.9.3.2.2.3.5.3.8 0 .3-.1.5-.2.7l-.5.5-.3.2c-.2.1-.3.2-.4.3l-.2.2h1.5v.6h-2.4c0-.3.1-.5.2-.7.2-.3.5-.6.8-.8zM447 181h2v12h-2v-5h-5v5h-2v-12h2v5h5v-5z"/></g></g></svg><svg id="icon-h2ce620a40c27ae086f4d71f93fb17ddb2" width="18" height="18" viewBox="-4 1 18 18" fill="#00a4ff" x="188" y="72"><style/><title>Combined Shape</title><g id="cc文章编辑器"><g id="cc普通" transform="translate(-441 -177)"><path id="ccCombined-Shape" class="ccst0" d="M451.4 191.6c.3-.2.5-.4.6-.5.1-.2.2-.3.2-.5 0-.1 0-.3-.1-.4-.1-.1-.2-.1-.4-.1s-.4.1-.4.2-.1.2-.1.4h-.7c0-.3.1-.5.2-.7.2-.4.5-.5 1-.5.4 0 .7.1.9.3.2.2.3.5.3.8 0 .3-.1.5-.2.7l-.5.5-.3.2c-.2.1-.3.2-.4.3l-.2.2h1.5v.6h-2.4c0-.3.1-.5.2-.7.2-.3.5-.6.8-.8zM447 181h2v12h-2v-5h-5v5h-2v-12h2v5h5v-5z"/></g></g></svg><svg id="icon-h3a9247b39d860baf45a09e839d5097119" width="18" height="18" viewBox="-3 0 18 18" fill="#666" x="188" y="90"><style/><title>Combined Shape</title><g id="cd文章编辑器"><g id="cd普通" transform="translate(-472 -177)"><path id="cdCombined-Shape" class="cdst0" d="M484.5 190c.1 0 .2.1.3.2.2.2.3.4.3.7 0 .3-.1.6-.3.8-.2.2-.5.3-.9.3-.5 0-.8-.2-1-.5-.1-.2-.2-.4-.2-.7h.7c0 .1 0 .3.1.4.1.2.2.3.5.3.1 0 .3 0 .4-.1.1-.1.2-.2.2-.4s-.1-.4-.3-.5c-.1 0-.3-.1-.5-.1v-.5c.2 0 .4 0 .5-.1.2-.1.2-.2.2-.4 0-.1 0-.2-.1-.3-.1-.1-.2-.1-.3-.1-.2 0-.3.1-.4.2-.1.1-.1.2-.1.4h-.6c0-.2 0-.3.1-.5.1-.1.1-.3.3-.4.1-.1.2-.1.3-.2.1 0 .3-.1.5-.1.3 0 .6.1.8.3.2.2.3.4.3.7 0 .2-.1.4-.2.5-.5 0-.5.1-.6.1zm-5.5-10h2v12h-2v-5h-5v5h-2v-12h2v5h5v-5z"/></g></g></svg><svg id="icon-h3b06ca1de1e016a62dcda0b0eff8a4c4" data-name="图层 1" width="18" height="18" viewBox="-1 -1 18 18" fill="#00a4ff" x="188" y="108"><defs><style/></defs><title>icon</title><path class="cecls-1" d="M10.5 2v5h-5V2h-2v12h2V9h5v5h2V2h-2z"/></svg><svg id="icon-h3f50d98ebda7faed90370679e66c551f8" width="18" height="18" viewBox="-3 0 18 18" fill="#00a4ff" x="130" y="73"><style/><title>Combined Shape</title><g id="cf文章编辑器"><g id="cf普通" transform="translate(-472 -177)"><path id="cfCombined-Shape" class="cfst0" d="M484.5 190c.1 0 .2.1.3.2.2.2.3.4.3.7 0 .3-.1.6-.3.8-.2.2-.5.3-.9.3-.5 0-.8-.2-1-.5-.1-.2-.2-.4-.2-.7h.7c0 .1 0 .3.1.4.1.2.2.3.5.3.1 0 .3 0 .4-.1.1-.1.2-.2.2-.4s-.1-.4-.3-.5c-.1 0-.3-.1-.5-.1v-.5c.2 0 .4 0 .5-.1.2-.1.2-.2.2-.4 0-.1 0-.2-.1-.3-.1-.1-.2-.1-.3-.1-.2 0-.3.1-.4.2-.1.1-.1.2-.1.4h-.6c0-.2 0-.3.1-.5.1-.1.1-.3.3-.4.1-.1.2-.1.3-.2.1 0 .3-.1.5-.1.3 0 .6.1.8.3.2.2.3.4.3.7 0 .2-.1.4-.2.5-.5 0-.5.1-.6.1zm-5.5-10h2v12h-2v-5h-5v5h-2v-12h2v5h5v-5z"/></g></g></svg><svg id="icon-hd55dd69a8881e8ee92c5b553967636a1" data-name="图层 1" width="18" height="18" viewBox="-1 -1 18 18" fill="#666" x="188" y="144"><defs><style/></defs><title>icon</title><path class="cgcls-1" d="M10.5 2v5h-5V2h-2v12h2V9h5v5h2V2h-2z"/></svg><svg width="18" height="18" viewBox="-1 -1 18 18" fill="#00a4ff" id="icon-insert-bottom81895a4d7eee470b2149bea79984b6f7" y="171"><path d="M15 0v8H1V0h14zM7 2H3v4h4V2zm6 0H9v4h4V2zm-6 9h8v2H7v-2zM1 9.172L3.829 12 1 14.828V9.172z" fill-rule="evenodd" clip-rule="evenodd"/></svg><svg width="18" height="18" viewBox="-1 -1 18 18" fill="#666" id="icon-insert-bottom97990524f3e32d5029a9011b416119f3" x="18" y="171"><path d="M15 0v8H1V0h14zM7 2H3v4h4V2zm6 0H9v4h4V2zm-6 9h8v2H7v-2zM1 9.172L3.829 12 1 14.828V9.172z" fill-rule="evenodd" clip-rule="evenodd"/></svg><svg width="18" height="18" viewBox="-1 -1 18 18" fill="#666" id="icon-insert-left4737c8ddda6961d6a3daff6f7e1dce17" x="36" y="171"><path d="M16 15H8V1h8v14zm-2-8V3h-4v4h4zm0 6V9h-4v4h4zM5 7v8H3V7h2zm1.828-6L4 3.828 1.172 1h5.656z" fill-rule="evenodd" clip-rule="evenodd"/></svg><svg width="18" height="18" viewBox="-1 -1 18 18" fill="#00a4ff" id="icon-insert-lefte755aa1e1111bc91e299fc552b04c0d2" x="54" y="171"><path d="M16 15H8V1h8v14zm-2-8V3h-4v4h4zm0 6V9h-4v4h4zM5 7v8H3V7h2zm1.828-6L4 3.828 1.172 1h5.656z" fill-rule="evenodd" clip-rule="evenodd"/></svg><svg width="18" height="18" viewBox="-1 -1 18 18" fill="#00a4ff" id="icon-insert-right1b9762c58d46da5af92d1be79100309e" x="72" y="171"><path d="M0 1h8v14H0V1zm6 6V3H2v4h4zm0 6V9H2v4h4zm7-6v8h-2V7h2zm1.828-6L12 3.828 9.172 1h5.656z" fill-rule="evenodd" clip-rule="evenodd"/></svg><svg width="18" height="18" viewBox="-1 -1 18 18" fill="#666" id="icon-insert-right7bf55779acb2fa799b9e40f864803cea" x="90" y="171"><path d="M0 1h8v14H0V1zm6 6V3H2v4h4zm0 6V9H2v4h4zm7-6v8h-2V7h2zm1.828-6L12 3.828 9.172 1h5.656z" fill-rule="evenodd" clip-rule="evenodd"/></svg><svg width="18" height="18" viewBox="-1 -1 18 18" fill="#666" id="icon-insert-top7efc74a387e94bafb95dc29ce1e51fc2" x="108" y="171"><path d="M1 16V8h14v8H1zm6-6H3v4h4v-4zm6 0H9v4h4v-4zM7 3h8v2H7V3zM1 1.172L3.829 4 1 6.828V1.172z" fill-rule="evenodd" clip-rule="evenodd"/></svg><svg width="18" height="18" viewBox="-1 -1 18 18" fill="#00a4ff" id="icon-insert-topcae228cbe580a9ad70179d7a3cdbc650" x="126" y="171"><path d="M1 16V8h14v8H1zm6-6H3v4h4v-4zm6 0H9v4h4v-4zM7 3h8v2H7V3zM1 1.172L3.829 4 1 6.828V1.172z" fill-rule="evenodd" clip-rule="evenodd"/></svg><svg id="icon-italic7815def10c2a32d038cda6ffd4e00f2f" data-name="图层 1" width="18" height="18" viewBox="-1 -1 18 18" fill="#666" x="144" y="171"><defs><style>.cpcls-1{fill-rule:evenodd}</style></defs><title>icon</title><path class="cpcls-1" d="M9.67 4l-1.34 8H10v2H4v-2h2.33l1.34-8H6V2h6v2z"/></svg><svg id="icon-italic9facaa4ee8cd2bcf3ae5f968ced25038" data-name="图层 1" width="18" height="18" viewBox="-1 -1 18 18" fill="#00a4ff" x="162" y="171"><defs><style>.cqcls-1{fill-rule:evenodd}</style></defs><title>icon</title><path class="cqcls-1" d="M9.67 4l-1.34 8H10v2H4v-2h2.33l1.34-8H6V2h6v2z"/></svg><svg width="22" height="22" viewBox="-1 -1 22 22" id="icon-joinc05a318f5cf8de890d459ae5e72a4b5c" x="148" y="22"><title>矩形复制 18</title><g transform="translate(3 3)" fill="none" fill-rule="evenodd"><path d="M0 1h2v14a1 1 0 0 1-2 0V1z" fill="#888"/><path d="M1 1.768v6.84c1.82-.563 3.236-.768 4.29-.595.688.113 1.132.283 1.774.622l.225.118c.605.316 1.065.464 1.951.553A14.282 14.282 0 0 0 13 9.171V2.347c-1.662.397-3.262.37-4.784-.088a7.671 7.671 0 0 1-.67-.24l-.438-.175a6.49 6.49 0 0 0-1.407-.38C4.322 1.238 2.756 1.336 1 1.768z" stroke="#888" stroke-width="2"/></g></svg><svg id="icon-like-l-actived3e71de993c44a56c71c0b438300ab6cd" width="32" height="32" viewBox="-1 -1 32 32" fill="#0092ee" x="66" y="73"><style>.csst0{fill-rule:evenodd;clip-rule:evenodd}</style><path class="csst0" d="M4.6 13h-2c-1.1 0-2.1.9-2.1 2v12c0 1.1.9 2 2.1 2h2.1c1.1 0 2.1-.9 2.1-2V15c-.1-1.1-1-2-2.2-2m21.8-2h-5.2V3.3C21.2 2 20.1 1 18.8 1c-1.1 0-2.1.8-2.3 1.8l-1.1 5.4C15 9.9 13.5 11 11.8 11c-1.7 0-3 1.4-3 3v12c0 1.7 1.4 3 3.1 3h11.7c1.5 0 2.7-1 3-2.3l2.8-12c.5-1.9-1-3.7-3-3.7"/></svg><svg id="icon-like-l-actived4596acbda31fdb4a7b1ffb9e6612dd4a" width="32" height="32" viewBox="-1 -1 32 32" x="34" y="73"><style>.ctst0{fill-rule:evenodd;clip-rule:evenodd}</style><path class="ctst0" fill="#00A4FF" d="M4.6 13h-2c-1.1 0-2.1.9-2.1 2v12c0 1.1.9 2 2.1 2h2.1c1.1 0 2.1-.9 2.1-2V15c-.1-1.1-1-2-2.2-2m21.8-2h-5.2V3.3C21.2 2 20.1 1 18.8 1c-1.1 0-2.1.8-2.3 1.8l-1.1 5.4C15 9.9 13.5 11 11.8 11c-1.7 0-3 1.4-3 3v12c0 1.7 1.4 3 3.1 3h11.7c1.5 0 2.7-1 3-2.3l2.8-12c.5-1.9-1-3.7-3-3.7"/></svg><svg id="icon-like-l24b71c4aebc5102b6679d6c1d8535d02" width="32" height="32" viewBox="-1 -1 32 32" x="98" y="73"><style>.cust0{fill-rule:evenodd;clip-rule:evenodd}</style><path class="cust0" fill="#fff" d="M24.7 25.4c-.3 1.6-.5 1.6-.9 1.6H11c-1.1 0-2-.9-2-2V15c0-1.1.9-2 2-2 2.1 0 3.9-1.5 4.4-3.6l1-5.4c.1-.6.7-1 1.3-1 .7 0 1.3.6 1.3 1.3V13h6c.6 0 1.2.3 1.6.7.4.5.5 1.1.4 1.7l-2.3 10zM7 25v2H3V15h4v10zm18-14h-4V4.3C21 2.5 19.5 1 17.7 1c-1.6 0-2.9 1.1-3.2 2.6L13.4 9c-.2 1.1-1.2 2-2.4 2-1.5 0-2.8.9-3.5 2.1-.2 0-.3-.1-.5-.1H3c-1.1 0-2 .9-2 2v12c0 1.1.9 2 2 2h4c.7 0 1.2-.3 1.6-.8.7.5 1.5.8 2.4.8h12.8c1.9 0 2.5-1.3 2.9-3.1l2.2-10c.6-2.5-1.3-4.9-3.9-4.9z"/></svg><svg width="22" height="22" viewBox="-1 -1 22 22" id="icon-like7045af8b111f187c4f68d4a71acd26ed" x="148" y="110"><title>矩形复制 15</title><path d="M8.008 16.996l-4.01.003A1 1 0 0 1 3 15.99V9.21c0-.558.453-1.008.998-1.006l3.498.012v-.012L9.091 3c1.623 0 2.67 1.487 2.156 3.237L10.946 8.2l4.13.004c.564.097.996.63.914 1.222l-1.164 6.699a.99.99 0 0 1-.914.873L8.008 17v-.004z" stroke="#888" stroke-width="2" fill="none" fill-rule="evenodd" stroke-linejoin="round"/></svg><svg id="icon-link0485e95903344d924091c632edd03934" data-name="图层 1" width="18" height="18" viewBox="-1 -1 18 18" fill="#00a4ff" x="206" y="72"><defs><style/></defs><title>icon</title><path class="cwcls-1" d="M7.83 11l-1.42 1.41a2 2 0 0 1-2.82-2.82L5 8.17l.71-.71-1.42-1.41-2.12 2.12a4 4 0 0 0 5.66 5.66l2.12-2.12-1.41-1.42zM13.83 2.17a4 4 0 0 0-5.66 0L6.05 4.29l1.41 1.42 1.42-1.42.71-.71a2 2 0 1 1 2.83 2.83l-.71.71-1.42 1.42 1.41 1.41 2.12-2.12a4 4 0 0 0 .01-5.66z"/><path class="cwcls-1" transform="rotate(-45 8.002 7.996)" d="M5 7h6v2H5z"/></svg><svg id="icon-linkfd23450c72c53223b99e5d5b5016ac7b" data-name="图层 1" width="18" height="18" viewBox="-1 -1 18 18" fill="#666" x="206" y="90"><defs><style/></defs><title>icon</title><path class="cxcls-1" d="M7.83 11l-1.42 1.41a2 2 0 0 1-2.82-2.82L5 8.17l.71-.71-1.42-1.41-2.12 2.12a4 4 0 0 0 5.66 5.66l2.12-2.12-1.41-1.42zM13.83 2.17a4 4 0 0 0-5.66 0L6.05 4.29l1.41 1.42 1.42-1.42.71-.71a2 2 0 1 1 2.83 2.83l-.71.71-1.42 1.42 1.41 1.41 2.12-2.12a4 4 0 0 0 .01-5.66z"/><path class="cxcls-1" transform="rotate(-45 8.002 7.996)" d="M5 7h6v2H5z"/></svg><svg data-name="图层 1" width="18" height="12" viewBox="-1 -1 18 12" id="icon-livedfcfc5603b6b4cc548cada5a0679ca9d" x="206" y="108"><title>直播</title><path d="M11.01 1a.19.19 0 0 1 0 .11V9h-10a.16.16 0 0 1 0-.12V1.11 1h10m0-1h-10a1.06 1.06 0 0 0-1 1.11v7.78a1.06 1.06 0 0 0 1 1.11h10a1.06 1.06 0 0 0 1-1.11V1.11a1.06 1.06 0 0 0-1-1.11z" fill="#fff"/><path d="M15.01 2.26v5.48l-3-1.27V3.53l3-1.28m.5-1.25a.47.47 0 0 0-.19 0l-4 1.7a.53.53 0 0 0-.31.49v3.58a.53.53 0 0 0 .31.49l4 1.7a.47.47 0 0 0 .19 0 .52.52 0 0 0 .5-.53v-6.9a.52.52 0 0 0-.5-.53zM7.81 5l-3 2V3l3 2z" fill="#fff"/></svg><svg width="18" height="18" viewBox="-1 -1 18 18" fill="#666" id="icon-merge-cells1da6373e97663683e7873ee49b04d78c" x="206" y="120"><path d="M1 15V1h14v14H1zM3 3v4h4V3H3zm10 0H9v4h4V3zm0 6H3v4h10V9z" fill-rule="evenodd" clip-rule="evenodd"/></svg><svg width="18" height="18" viewBox="-1 -1 18 18" fill="#00a4ff" id="icon-merge-cellse207514ca00f83c46b6a2e39f1550426" x="206" y="138"><path d="M1 15V1h14v14H1zM3 3v4h4V3H3zm10 0H9v4h4V3zm0 6H3v4h10V9z" fill-rule="evenodd" clip-rule="evenodd"/></svg><svg viewBox="12 -6 24 24" fill="#00a4ff" width="24" height="24" id="icon-more6394bb0e5ed8402d33a9e7bf21e575fb" x="106" y="107"><title>icon</title><path class="dbst0" d="M19.5 6c0-.8-.7-1.5-1.5-1.5s-1.5.7-1.5 1.5.7 1.5 1.5 1.5 1.5-.7 1.5-1.5zm3 0c0 .8.7 1.5 1.5 1.5s1.5-.7 1.5-1.5-.7-1.5-1.5-1.5-1.5.7-1.5 1.5zm6 0c0 .8.7 1.5 1.5 1.5s1.5-.7 1.5-1.5-.7-1.5-1.5-1.5-1.5.7-1.5 1.5z"/></svg><svg viewBox="12 -6 24 24" width="24" height="24" id="icon-moredad8d8c8fb256c9d023a9c2f0ed61efc" x="82" y="107"><title>icon</title><path class="dcst0" fill="#999" d="M19.5 6c0-.8-.7-1.5-1.5-1.5s-1.5.7-1.5 1.5.7 1.5 1.5 1.5 1.5-.7 1.5-1.5zm3 0c0 .8.7 1.5 1.5 1.5s1.5-.7 1.5-1.5-.7-1.5-1.5-1.5-1.5.7-1.5 1.5zm6 0c0 .8.7 1.5 1.5 1.5s1.5-.7 1.5-1.5-.7-1.5-1.5-1.5-1.5.7-1.5 1.5z"/></svg><svg id="icon-ol6bad384626f0bc28c757c6eb7bb90373" data-name="图层 1" width="18" height="18" viewBox="-1 -1 18 18" fill="#00a4ff" x="18" y="189"><defs><style/></defs><title>icon</title><path class="ddcls-1" d="M2 5h.7V1.46h-.58a.58.58 0 0 1 0 .14.61.61 0 0 1-.12.26.65.65 0 0 1-.38.14 3.07 3.07 0 0 1-.46 0v.47H2zM1.88 8.33a2 2 0 0 0-.7.75 1.66 1.66 0 0 0-.16.7h2.42v-.61H1.89A.79.79 0 0 1 2.05 9l.36-.27.28-.2a2.33 2.33 0 0 0 .51-.45 1.11 1.11 0 0 0 .23-.7 1.08 1.08 0 0 0-.33-.82 1.26 1.26 0 0 0-.89-.31 1 1 0 0 0-1 .53 1.71 1.71 0 0 0-.16.73h.68A1.18 1.18 0 0 1 1.8 7a.44.44 0 0 1 .43-.24.44.44 0 0 1 .36.24.56.56 0 0 1 .12.37.73.73 0 0 1-.22.51 5.15 5.15 0 0 1-.61.45zM2.91 12.68a.64.64 0 0 0 .24-.18.78.78 0 0 0 .19-.5.88.88 0 0 0-.31-.7 1.23 1.23 0 0 0-.82-.3 1.41 1.41 0 0 0-.46.07.94.94 0 0 0-.32.19 1.12 1.12 0 0 0-.27.38 1.74 1.74 0 0 0-.09.5h.65a.66.66 0 0 1 .11-.42.42.42 0 0 1 .36-.16.43.43 0 0 1 .33.13.46.46 0 0 1 .12.33.41.41 0 0 1-.23.42 1.32 1.32 0 0 1-.47.07V13a1.43 1.43 0 0 1 .51.07.46.46 0 0 1 .28.47.52.52 0 0 1-.15.4.51.51 0 0 1-.36.14.47.47 0 0 1-.46-.26.8.8 0 0 1-.07-.35H1a1.45 1.45 0 0 0 .17.68 1.11 1.11 0 0 0 1 .49 1.18 1.18 0 0 0 .92-.34 1.13 1.13 0 0 0 .31-.79.87.87 0 0 0-.27-.67.5.5 0 0 0-.22-.16zM4.99 3H15v2H4.99zM4.99 7H15v2H4.99zM4.99 11H15v2H4.99z"/></svg><svg id="icon-ol89e1f8b3109662fe41b10b82d9bde5f2" data-name="图层 1" width="18" height="18" viewBox="-1 -1 18 18" fill="#666" x="36" y="189"><defs><style/></defs><title>icon</title><path class="decls-1" d="M2 5h.7V1.46h-.58a.58.58 0 0 1 0 .14.61.61 0 0 1-.12.26.65.65 0 0 1-.38.14 3.07 3.07 0 0 1-.46 0v.47H2zM1.88 8.33a2 2 0 0 0-.7.75 1.66 1.66 0 0 0-.16.7h2.42v-.61H1.89A.79.79 0 0 1 2.05 9l.36-.27.28-.2a2.33 2.33 0 0 0 .51-.45 1.11 1.11 0 0 0 .23-.7 1.08 1.08 0 0 0-.33-.82 1.26 1.26 0 0 0-.89-.31 1 1 0 0 0-1 .53 1.71 1.71 0 0 0-.16.73h.68A1.18 1.18 0 0 1 1.8 7a.44.44 0 0 1 .43-.24.44.44 0 0 1 .36.24.56.56 0 0 1 .12.37.73.73 0 0 1-.22.51 5.15 5.15 0 0 1-.61.45zM2.91 12.68a.64.64 0 0 0 .24-.18.78.78 0 0 0 .19-.5.88.88 0 0 0-.31-.7 1.23 1.23 0 0 0-.82-.3 1.41 1.41 0 0 0-.46.07.94.94 0 0 0-.32.19 1.12 1.12 0 0 0-.27.38 1.74 1.74 0 0 0-.09.5h.65a.66.66 0 0 1 .11-.42.42.42 0 0 1 .36-.16.43.43 0 0 1 .33.13.46.46 0 0 1 .12.33.41.41 0 0 1-.23.42 1.32 1.32 0 0 1-.47.07V13a1.43 1.43 0 0 1 .51.07.46.46 0 0 1 .28.47.52.52 0 0 1-.15.4.51.51 0 0 1-.36.14.47.47 0 0 1-.46-.26.8.8 0 0 1-.07-.35H1a1.45 1.45 0 0 0 .17.68 1.11 1.11 0 0 0 1 .49 1.18 1.18 0 0 0 .92-.34 1.13 1.13 0 0 0 .31-.79.87.87 0 0 0-.27-.67.5.5 0 0 0-.22-.16zM4.99 3H15v2H4.99zM4.99 7H15v2H4.99zM4.99 11H15v2H4.99z"/></svg><svg id="icon-pic2040370597f5677cd058e0d672b3e170" data-name="图层 1" width="18" height="18" viewBox="-1 -1 18 18" fill="#00a4ff" x="54" y="189"><defs><style/></defs><title>icon</title><path class="dfcls-1" d="M0 1v14h16V1zm14 2v2.52L9.76 8.91 5.93 8 2 9.52V3zM2 13v-1.32L6.07 10l4.17 1L14 8v5z"/><circle class="dfcls-1" cx="5.5" cy="5.5" r="1.5"/></svg><svg id="icon-picae5c58663488e95d5801aa5dd15ba452" data-name="图层 1" width="18" height="18" viewBox="-1 -1 18 18" fill="#666" x="72" y="189"><defs><style/></defs><title>icon</title><path class="dgcls-1" d="M0 1v14h16V1zm14 2v2.52L9.76 8.91 5.93 8 2 9.52V3zM2 13v-1.32L6.07 10l4.17 1L14 8v5z"/><circle class="dgcls-1" cx="5.5" cy="5.5" r="1.5"/></svg><svg width="14" height="14" viewBox="-1 -1 14 14" id="icon-playing067065a13e12b7896138dcdf342f6a64" x="224" y="134"><title>Artboard</title><defs><path id="dha" d="M0 0h10v12H0z"/></defs><g transform="translate(1)" fill="none" fill-rule="evenodd"><mask id="dhb" fill="#fff"><use xlink:href="#dha"/></mask><path d="M.8 7.2a.8.8 0 0 1 .8.8v3.2a.8.8 0 1 1-1.6 0V8a.8.8 0 0 1 .8-.8zM3.6 0a.8.8 0 0 1 .8.8v10.4a.8.8 0 1 1-1.6 0V.8c0-.442.358-.8.8-.8zm2.8 3.2a.8.8 0 0 1 .8.8v7.2a.8.8 0 0 1-1.6 0V4a.8.8 0 0 1 .8-.8zm2.8-1.6a.8.8 0 0 1 .8.8v8.8a.8.8 0 0 1-1.6 0V2.4a.8.8 0 0 1 .8-.8z" fill="#FFF" mask="url(#dhb)"/></g></svg><svg width="22" height="22" viewBox="-1 -1 22 22" id="icon-publish3ccfbedab3367ecb68baf9e7fb94ec4e" x="148"><title>矩形复制 14</title><path d="M10 3v2H5v10h10V9h2v7a1 1 0 0 1-1 1H4a1 1 0 0 1-1-1V4a1 1 0 0 1 1-1h6zm6.51.313a1 1 0 0 1 0 1.414l-6.363 6.364a1 1 0 1 1-1.415-1.414l6.364-6.364a1 1 0 0 1 1.415 0z" fill="#888" fill-rule="nonzero"/></svg><svg id="icon-searchd34544d807d023ae39b6b7c0b59dc188" data-name="图层 1" width="18" height="18" viewBox="-1 -1 18 18" x="126" y="189"><defs><style/></defs><title>icon</title><path class="djcls-1" fill="#888" d="M15.7 14.3l-3.1-3.1A6.85 6.85 0 0 0 14 7a7 7 0 0 0-7-7 7 7 0 0 0-7 7 7 7 0 0 0 7 7 6.85 6.85 0 0 0 4.2-1.4l3.1 3.1a1 1 0 0 0 1.4-1.4zM7 12a5 5 0 0 1-5-5 5 5 0 0 1 5-5 5 5 0 0 1 5 5 5 5 0 0 1-5 5z"/></svg><svg width="18" height="18" viewBox="-1 -1 18 18" fill="#666" id="icon-split-cells52377349485a451b13869fc1eb1769b9" x="144" y="189"><path d="M1 1v14h14V1H1zm2 2h4v4H3V3zm2 10H3V9h2v4zm2 0V9h2v4H7zm6 0h-2V9h2v4zm0-6H9V3h4v4z" fill-rule="evenodd" clip-rule="evenodd"/></svg><svg width="18" height="18" viewBox="-1 -1 18 18" fill="#00a4ff" id="icon-split-cells55de4fcd6ff83f0a46b2c210eb468769" x="162" y="189"><path d="M1 1v14h14V1H1zm2 2h4v4H3V3zm2 10H3V9h2v4zm2 0V9h2v4H7zm6 0h-2V9h2v4zm0-6H9V3h4v4z" fill-rule="evenodd" clip-rule="evenodd"/></svg><svg id="icon-strike5e799452d25d703d738ff7ab9ef73ae4" data-name="图层 1" width="18" height="18" viewBox="-1 -1 18 18" fill="#00a4ff" x="180" y="189"><defs><style>.dmcls-1{fill:none;clip-rule:evenodd}.cls-3{clip-path:url(#dmclip-path)}</style><clipPath id="dmclip-path"><path class="dmcls-1" d="M318.73 109.37l-1.42 1.41-5.07-5.07 5.07-5.07 1.42 1.41-3.66 3.66 3.66 3.66z"/></clipPath></defs><title>s</title><path class="dmcls-2" d="M11.3 8a4 4 0 0 0-2.23-.89l-1.31-.2a2.42 2.42 0 0 1-1.22-.5 1.22 1.22 0 0 1-.39-1c0-1 .77-1.64 2-1.64a3.22 3.22 0 0 1 2.4.85l.1.1 1.33-1.31-.11-.11A4.94 4.94 0 0 0 8.16 2c-2.43 0-4 1.38-4 3.53a3 3 0 0 0 .89 2.31 4.1 4.1 0 0 0 2.26 1L8.67 9a1.87 1.87 0 0 1 1.18.45 1.41 1.41 0 0 1 .4 1.08c0 1-.81 1.61-2.23 1.61a3.61 3.61 0 0 1-2.82-1.06L5.09 11l-1.38 1.33.1.11A5.35 5.35 0 0 0 8 14c2.6 0 4.29-1.38 4.29-3.53A3.16 3.16 0 0 0 11.3 8z"/><path class="dmcls-2" d="M2 7h12v1H2z"/></svg><svg id="icon-strikeb32078c491a3ff9cd7b4b706a23f53b7" data-name="图层 1" width="18" height="18" viewBox="-1 -1 18 18" fill="#666" x="198" y="189"><defs><style>.dncls-1{fill:none;clip-rule:evenodd}.cls-3{clip-path:url(#dnclip-path)}</style><clipPath id="dnclip-path"><path class="dncls-1" d="M318.73 109.37l-1.42 1.41-5.07-5.07 5.07-5.07 1.42 1.41-3.66 3.66 3.66 3.66z"/></clipPath></defs><title>s</title><path class="dncls-2" d="M11.3 8a4 4 0 0 0-2.23-.89l-1.31-.2a2.42 2.42 0 0 1-1.22-.5 1.22 1.22 0 0 1-.39-1c0-1 .77-1.64 2-1.64a3.22 3.22 0 0 1 2.4.85l.1.1 1.33-1.31-.11-.11A4.94 4.94 0 0 0 8.16 2c-2.43 0-4 1.38-4 3.53a3 3 0 0 0 .89 2.31 4.1 4.1 0 0 0 2.26 1L8.67 9a1.87 1.87 0 0 1 1.18.45 1.41 1.41 0 0 1 .4 1.08c0 1-.81 1.61-2.23 1.61a3.61 3.61 0 0 1-2.82-1.06L5.09 11l-1.38 1.33.1.11A5.35 5.35 0 0 0 8 14c2.6 0 4.29-1.38 4.29-3.53A3.16 3.16 0 0 0 11.3 8z"/><path class="dncls-2" d="M2 7h12v1H2z"/></svg><svg data-name="图层 1" width="18" height="18" viewBox="-1 -1 18 18" id="icon-successf496804454e04ad8069e4045c03a11ed" x="224"><title>icon-success</title><path d="M7.041 8.79L5.3 7.047 3.885 8.461l3.156 3.157L8.456 10.2 12 6.624 10.586 5.21zM8 3a5 5 0 1 1-5 5 5 5 0 0 1 5-5m0-2a7 7 0 1 0 7 7 7 7 0 0 0-7-7z" fill="#0abf5b"/></svg><svg id="icon-table411edb45f71bb6545a353a60bda7a5f1" viewBox="-1 -1 18 18" fill="#00a4ff" width="18" height="18" x="224" y="18"><style/><title>biaoge</title><path class="dpst0" d="M1 1h14v14H1V1zm6 12V9H3v4h4zm2 0h4V9H9v4zM7 3H3v4h4V3zm2 0v4h4V3H9z"/></svg><svg id="icon-table5afa41c89fc289fda9c39a65e583fd8e" viewBox="-1 -1 18 18" fill="#666" width="18" height="18" x="224" y="36"><style/><title>biaoge</title><path class="dqst0" d="M1 1h14v14H1V1zm6 12V9H3v4h4zm2 0h4V9H9v4zM7 3H3v4h4V3zm2 0v4h4V3H9z"/></svg><svg id="icon-ul7c8486c649bc09679d72bc4a14977a9a" data-name="图层 1" width="18" height="18" viewBox="-1 -1 18 18" fill="#00a4ff" x="224" y="54"><defs><style/></defs><title>icon</title><path class="drcls-1" d="M1 3h2v2H1zM5 3h10v2H5zM5 7h10v2H5zM5 11h10v2H5zM1 7h2v2H1zM1 11h2v2H1z"/></svg><svg id="icon-ulfb4ccfb7c575e2a5b79b935c3d032957" data-name="图层 1" width="18" height="18" viewBox="-1 -1 18 18" fill="#666" x="90" y="189"><defs><style/></defs><title>icon</title><path class="dscls-1" d="M1 3h2v2H1zM5 3h10v2H5zM5 7h10v2H5zM5 11h10v2H5zM1 7h2v2H1zM1 11h2v2H1z"/></svg><svg id="icon-underline4523bf4c1074a096e383c8ee47ed0231" data-name="图层 1" width="18" height="18" viewBox="-1 -1 18 18" fill="#666" x="108" y="189"><defs><style/></defs><title>icon</title><path class="dtcls-1" d="M10.5 2v5.5a2.5 2.5 0 0 1-5 0V2h-2v5.5a4.5 4.5 0 0 0 9 0V2zM3.5 13h9v1h-9z"/></svg><svg id="icon-underlineae52d9f8538e729781b32fb467022c5f" data-name="图层 1" width="18" height="18" viewBox="-1 -1 18 18" fill="#00a4ff" x="162" y="153"><defs><style/></defs><title>icon</title><path class="ducls-1" d="M10.5 2v5.5a2.5 2.5 0 0 1-5 0V2h-2v5.5a4.5 4.5 0 0 0 9 0V2zM3.5 13h9v1h-9z"/></svg><svg width="18" height="18" viewBox="-1 -1 18 18" fill="#00a4ff" id="icon-video5e4ae5a3413e8d068f30c28a68f59aab" x="144" y="153"><title>Artboard</title><g transform="translate(1 2)" fill-rule="nonzero"><path d="M11 2v8H2V2h9zm2-2H0v12h13V0z"/><path d="M5 3v6l4-3z"/></g></svg><svg width="18" height="18" viewBox="-1 -1 18 18" id="icon-video9726bd80f3c785e24766a12bfd6e91b8" x="170" y="18"><title>Artboard</title><g transform="translate(1 2)" fill="#888" fill-rule="nonzero"><path d="M11 2v8H2V2h9zm2-2H0v12h13V0z"/><path d="M5 3v6l4-3z"/></g></svg><svg data-name="图层 1" width="14" height="14" viewBox="-1 -1 14 14" fill="#00a4ff" id="invite-close174c40f486fe20cc70454b7919086efb" x="224" y="120"><title>invite-close</title><path data-name="形状 5" d="M11.7 10.51L7.19 5.975l4.51-4.536a.911.911 0 0 0 0-1.183.9.9 0 0 0-1.18 0l-4.5 4.536L1.51.256a.884.884 0 0 0-1.17 0A.811.811 0 0 0 .305 1.4l.035.035 4.5 4.536-4.5 4.539a.912.912 0 0 0 0 1.184.88.88 0 0 0 1.17 0l4.51-4.535 4.5 4.535a.893.893 0 0 0 1.18 0 .912.912 0 0 0 0-1.184z"/></svg><svg data-name="图层 1" width="14" height="14" viewBox="-1 -1 14 14" id="invite-closed05b40111d39b5d2dbe48f3406d142f1" x="224" y="106"><title>invite-close</title><path data-name="形状 5" d="M11.7 10.51L7.19 5.975l4.51-4.536a.911.911 0 0 0 0-1.183.9.9 0 0 0-1.18 0l-4.5 4.536L1.51.256a.884.884 0 0 0-1.17 0A.811.811 0 0 0 .305 1.4l.035.035 4.5 4.536-4.5 4.539a.912.912 0 0 0 0 1.184.88.88 0 0 0 1.17 0l4.51-4.535 4.5 4.535a.893.893 0 0 0 1.18 0 .912.912 0 0 0 0-1.184z" fill="#999"/></svg><svg width="102" height="27" viewBox="-1 -1 102 27" id="logo594ae0aa2863513ae9b8ec8c44cd219d"><title>logo</title><g transform="translate(-1)" fill="#CCC" fill-rule="nonzero"><path d="M33.3 11.4C31.8 9.8 29.7 9 27.5 9c-1.9 0-3.6.7-5.1 1.9-.6.5-1.3 1.1-2.1 1.9L11 21.9H9.1c-1.3 0-2.6-.5-3.5-1.4-1.9-1.9-2-5-.1-6.9.9-1 2.2-1.5 3.5-1.5 1.2 0 2.4.5 3.3 1.3.6.5 2 1.7 2.6 2.3h.1l2.1-2.1v-.1c-1-.9-2.5-2.2-3.4-2.9-.9-.7-1.9-1.2-3-1.4h.1c.9-4.1 4.9-6.7 9-5.8 2.3.5 4.3 2.1 5.3 4.2h.1c1-.3 2-.4 3-.3.1 0 .1 0 .1-.1-2-5.6-8.2-8.4-13.8-6.4C10.9 2 8.3 5.2 7.7 9.1c-4.4.7-7.3 4.8-6.6 9.2.3 1.7 1.1 3.2 2.3 4.4 1.2 1.2 2.8 1.9 4.5 2.2.7.1 1.5.1 2.3.1h15.2c1.2 0 1.9 0 2.7-.1 1.9-.1 3.7-.9 5.1-2.2 3.1-3.1 3.2-8.1.1-11.3zm-2.4 9.1c-1 .9-2.2 1.4-3.5 1.4H15.5l6.9-6.7c.3-.3 1-1 1.7-1.6.9-.9 2.2-1.4 3.5-1.5 2.7 0 4.9 2.2 4.9 4.9-.1 1.3-.6 2.5-1.6 3.5z"/><g transform="translate(41 4)"><path d="M2.1.7h11.2v1.6H2.1zM6.8 8.5h10.6V6.9H.3v1.6h4.6l-3.3 8.8v.1h14.8s.1 0 .1-.1l-2.1-5.6h-1.8s-.1 0-.1.1l1.5 4H4l2.8-7.3z"/></g><g transform="translate(64 3)"><path d="M13.8 16.8V7.6H18V6h-4.2V.6H12V6H7.8v1.6H12v9.2H7.3v1.6h11.2v-1.6z"/><path d="M8.4 12.1c.1 0 .1-.1 0 0l.1-.1-2.4-2.8h-.8C6 8.2 6.6 7.2 7 6V4.4H1.1v1.5h4.1C4.2 8 2.7 9.8.9 11.2V13s0 .1.1.1h.1c.8-.5 1.6-1.2 2.3-1.9v7.5h1.7v-8.2L6.4 12h2v.1zM2.4.8c0-.1-.1 0 0 0l-.1.1L4 3.7h1.8s.1 0 .1-.1v-.1L4.2.7H2.4v.1z"/></g><g transform="translate(85 4)"><path d="M14.1 2.9H12L8.8 7 5.6 2.9H3.5s-.1 0-.1.1v.1l4.3 5.5-4.5 5.9v.1h2.2L8.9 10l3.6 4.5h2.2s.1 0 .1-.1L10 8.5 14.2 3s0-.1-.1-.1z"/><path d="M15.8 15.8H1.9V1.7h13.7V.1H.1v17.3h15.7z"/></g><path d="M63.1 4.7H60V1.6h-1.6v3.1h-3.1v1.6h3.1v3.1H60V6.3h3.1z"/></g></svg><svg width="12" height="12" viewBox="-1 -1 12 12" id="member-creatorf78a9b2e127a00e043e1e95cf0da015c" y="207"><title>Group 3</title><g fill="none" fill-rule="evenodd"><circle fill="#FFF" cx="5" cy="5" r="5"/><path fill="#262A35" fill-rule="nonzero" d="M4 7V6h2v1h1V5h1L5 2 2 5h1v2z"/></g></svg><svg width="9" height="13" viewBox="-1 -1 9 13" id="prev-arrow928d40b54b76349cf4840e2f5a6aa62a" x="92" y="40"><title>路径 copy 5</title><path d="M2.344 5.504l4.648 4.388L5.817 11 0 5.509l.005-.005L0 5.5 5.826 0 7 1.108z" fill="#9B9B9B" fill-rule="evenodd"/></svg><svg width="9" height="13" viewBox="-1 -1 9 13" fill="#00a4ff" id="prev-arrowebb7975be24ca2b122d3ccba20eb9f78" x="92" y="27"><title>路径 copy 5</title><path d="M2.344 5.504l4.648 4.388L5.817 11 0 5.509l.005-.005L0 5.5 5.826 0 7 1.108z" fill-rule="evenodd"/></svg><svg id="sidebar-trigger-hover4803a23b744b3252e288f2966e1ea139" width="18" height="18" viewBox="-1 -1 18 18" x="188" y="126"><style>.edst0{fill-rule:evenodd;clip-rule:evenodd}</style><path id="edXMLID_1_" class="edst0" fill="#00a4ff" d="M12.5 2L8 6.6 3.5 2 2.1 3.5 6.6 8l-4.5 4.5 1.4 1.4L8 9.4l4.5 4.5 1.4-1.4L9.4 8l4.5-4.5z"/></svg><svg id="sidebar-trigger6fa44efbf574bec73173260112bfa28c" width="18" height="18" viewBox="-1 -1 18 18" x="188"><style>.eest0{fill-rule:evenodd;clip-rule:evenodd}</style><path id="eeXMLID_1_" class="eest0" fill="#bcbcbb" d="M12.5 2L8 6.6 3.5 2 2.1 3.5 6.6 8l-4.5 4.5 1.4 1.4L8 9.4l4.5 4.5 1.4-1.4L9.4 8l4.5-4.5z"/></svg><svg data-name="图层 1" width="14" height="14" viewBox="-1 -1 17 17" id="star-full23b9bb8c6d5a47437b6aa7955d492a43" x="206" y="174"><title>Star</title><path fill="#ff7200" d="M7.5 12.44L2.87 15l.88-5.43L0 5.73l5.18-.79L7.5 0l2.32 4.94 5.18.79-3.75 3.84.88 5.43-4.63-2.56z"/></svg><svg data-name="图层 1" width="14" height="14" viewBox="-1 -1 17 17" id="star-part88158cecd3b32dac7ab6e1162cb04da1" x="224" y="185"><title>Rectangle 11</title><path fill="#ddd" d="M15.01 5.73l-5.19-.79L7.5 0v12.44L12.14 15l-.88-5.43 3.75-3.84z"/><path fill="#ff7200" d="M0 5.73l5.18-.79L7.5 0v12.44L2.87 15l.88-5.43L0 5.73z"/></svg><svg data-name="图层 1" width="14" height="14" viewBox="-1 -1 17 17" id="star890900b9d678f437fb294044fd3aa80a" x="224" y="162"><title>Star-灰色</title><path fill="#ddd" d="M7.5 12.44L2.87 15l.88-5.43L0 5.73l5.18-.79L7.5 0l2.32 4.94 5.18.79-3.75 3.84.88 5.43-4.63-2.56z"/></svg><svg width="22" height="22" viewBox="-1 -1 22 22" id="tag-icon8de79b0a022ea516c9d8ea1df086d157" x="148" y="44"><title>Artboard</title><defs><path id="eia" d="M.002.024h17.497V17.49H.002z"/></defs><g transform="translate(0 1)" fill="none" fill-rule="evenodd"><mask id="eib" fill="#fff"><use xlink:href="#eia"/></mask><path d="M6.62 17.49a2.916 2.916 0 0 1-2.074-.857l-3.687-3.68a2.924 2.924 0 0 1 0-4.139L9.155.534c.326-.328.77-.511 1.233-.51h5.368c.962 0 1.742.78 1.743 1.74v5.36c.002.461-.182.904-.51 1.23l-8.296 8.28c-.549.55-1.296.859-2.074.857zm-.977-1.952a1.382 1.382 0 0 0 1.951 0l8.297-8.281a.189.189 0 0 0 .056-.135V1.764a.191.191 0 0 0-.191-.19h-5.368c-.05 0-.1.02-.135.055L1.957 9.91a1.375 1.375 0 0 0 0 1.947l3.686 3.68z" fill="#00A3FF" mask="url(#eib)"/><path d="M10.766 18.333a.766.766 0 0 1-.708-.477.778.778 0 0 1 .166-.842l8.188-8.261a.19.19 0 0 0 .056-.135V3.273a.77.77 0 0 1 .766-.773.77.77 0 0 1 .766.773v5.345c.001.46-.18.903-.504 1.228l-8.188 8.261a.76.76 0 0 1-.542.226zM12.5 4.167a.833.833 0 1 0 1.667 0 .833.833 0 0 0-1.667 0z" fill="#00A3FF"/></g></svg><svg width="11" height="13" viewBox="-1 -1 11 13" id="toggle-icon5704ef6af4236a88d5f274bca58e2061" x="130" y="91"><title>Group 24</title><g fill="#FFF" fill-rule="evenodd"><path d="M0 0l4.5 4.432v1.241L0 10.125V8.648l3.662-3.585L0 1.458zM4.5 0L9 4.432v1.241l-4.5 4.452V8.648l3.662-3.585L4.5 1.458z"/></g></svg></svg>